<svg width="381" height="320" viewBox="0 0 381 320" fill="none" xmlns="http://www.w3.org/2000/svg">
<g filter="url(#filter0_d)">
<path fill-rule="evenodd" clip-rule="evenodd" d="M95.8364 208.021C91.6753 192.198 87.1695 175.727 78.9559 161.576C69.6797 145.596 64.3428 126.867 64.3428 106.842C64.3428 48.2413 110.049 0.735962 166.43 0.735962C217.999 0.735962 275.296 26.7646 307.408 67.1165C320.298 83.3141 328 103.825 328 126.134C328 181.112 283.658 233.281 232.493 253.395C227.568 255.331 222.441 257.012 217.138 258.407C161.323 273.085 107.014 250.526 95.8364 208.021Z" fill="white"/>
</g>
<path d="M136.097 81.9498V199.633C136.097 205.155 140.574 209.633 146.097 209.633H226.028C231.55 209.633 236.028 205.155 236.028 199.633V81.9498C236.028 76.4269 231.55 71.9498 226.028 71.9498H146.097C140.574 71.9498 136.097 76.4269 136.097 81.9498Z" fill="#FFEAAD" stroke="#4D4962" stroke-width="2"/>
<path d="M115 64.1843V181.867C115 187.39 119.477 191.867 125 191.867H204.931C210.454 191.867 214.931 187.39 214.931 181.867V64.1843C214.931 58.6614 210.454 54.1843 204.931 54.1843H125C119.477 54.1843 115 58.6614 115 64.1843Z" fill="#FFEAAD" stroke="#4D4962" stroke-width="2"/>
<path d="M135.541 200.188V125.808C135.541 120.286 140.019 115.808 145.541 115.808H209.219C212.759 115.808 216.035 113.937 217.833 110.888L224.798 99.0768C226.596 96.0279 229.872 94.1567 233.412 94.1567H266C271.523 94.1567 276 98.6338 276 104.157V200.188C276 205.711 271.523 210.188 266 210.188H145.541C140.019 210.188 135.541 205.711 135.541 200.188Z" fill="#FFC107" stroke="#4D4962" stroke-width="2"/>
<path d="M131.05 124.796L147.4 134.236L131.05 143.676L131.05 124.796Z" fill="#4CAF50" stroke="#4D4962" stroke-width="1.6"/>
<path d="M257.469 136.954L257.822 136.601L257.469 136.954ZM274.726 117.236C275.003 117.236 275.226 117.012 275.226 116.736C275.226 116.46 275.003 116.236 274.726 116.236L274.726 117.236ZM274.726 140.923C275.003 140.923 275.226 140.699 275.226 140.423C275.226 140.147 275.003 139.923 274.726 139.923L274.726 140.923ZM274.726 139.923L272.506 139.923L272.506 140.923L274.726 140.923L274.726 139.923ZM268.064 139.923L265.844 139.923L265.844 140.923L268.064 140.923L268.064 139.923ZM265.844 139.923C265.095 139.923 264.354 139.849 263.631 139.705L263.436 140.686C264.223 140.843 265.029 140.923 265.844 140.923L265.844 139.923ZM259.541 138.012C258.928 137.602 258.352 137.13 257.822 136.601L257.115 137.308C257.691 137.884 258.318 138.397 258.986 138.843L259.541 138.012ZM257.822 136.601C257.293 136.071 256.822 135.495 256.412 134.882L255.58 135.437C256.026 136.105 256.539 136.732 257.115 137.308L257.822 136.601ZM254.718 130.793C254.574 130.069 254.5 129.328 254.5 128.58L253.5 128.58C253.5 129.394 253.581 130.2 253.737 130.988L254.718 130.793ZM254.5 128.58C254.5 127.831 254.574 127.09 254.718 126.367L253.737 126.171C253.581 126.959 253.5 127.765 253.5 128.58L254.5 128.58ZM256.412 122.277C256.822 121.664 257.293 121.088 257.822 120.558L257.115 119.851C256.539 120.427 256.026 121.054 255.58 121.722L256.412 122.277ZM257.822 120.558C258.352 120.029 258.928 119.557 259.541 119.148L258.986 118.316C258.318 118.762 257.691 119.275 257.115 119.851L257.822 120.558ZM263.631 117.454C264.354 117.31 265.095 117.236 265.844 117.236L265.844 116.236C265.029 116.236 264.223 116.316 263.436 116.473L263.631 117.454ZM265.844 117.236L268.064 117.236L268.064 116.236L265.844 116.236L265.844 117.236ZM272.506 117.236L274.726 117.236L274.726 116.236L272.506 116.236L272.506 117.236ZM257.469 136.954L258.176 136.247L257.469 136.954ZM274.726 117.736C275.279 117.736 275.726 117.288 275.726 116.736C275.726 116.184 275.279 115.736 274.726 115.736L274.726 117.736ZM274.726 141.423C275.279 141.423 275.726 140.976 275.726 140.423C275.726 139.871 275.279 139.423 274.726 139.423L274.726 141.423ZM274.726 139.423L272.506 139.423L272.506 141.423L274.726 141.423L274.726 139.423ZM268.064 139.423L265.844 139.423L265.844 141.423L268.064 141.423L268.064 139.423ZM265.844 139.423C265.128 139.423 264.42 139.353 263.728 139.215L263.338 141.177C264.157 141.34 264.996 141.423 265.844 141.423L265.844 139.423ZM259.819 137.596C259.233 137.204 258.682 136.753 258.176 136.247L256.762 137.661C257.361 138.261 258.014 138.795 258.708 139.259L259.819 137.596ZM258.176 136.247C257.67 135.741 257.219 135.19 256.827 134.604L255.164 135.715C255.629 136.41 256.163 137.062 256.762 137.661L258.176 136.247ZM255.208 130.695C255.071 130.003 255 129.295 255 128.58L253 128.58C253 129.427 253.084 130.266 253.247 131.085L255.208 130.695ZM255 128.58C255 127.864 255.071 127.156 255.208 126.464L253.247 126.074C253.084 126.893 253 127.732 253 128.58L255 128.58ZM256.827 122.555C257.219 121.969 257.67 121.418 258.176 120.912L256.762 119.498C256.163 120.097 255.629 120.749 255.164 121.444L256.827 122.555ZM258.176 120.912C258.682 120.406 259.233 119.955 259.819 119.563L258.708 117.9C258.014 118.364 257.361 118.898 256.762 119.498L258.176 120.912ZM263.728 117.944C264.42 117.807 265.128 117.736 265.844 117.736L265.844 115.736C264.996 115.736 264.157 115.82 263.338 115.983L263.728 117.944ZM265.844 117.736L268.064 117.736L268.064 115.736L265.844 115.736L265.844 117.736ZM272.506 117.736L274.726 117.736L274.726 115.736L272.506 115.736L272.506 117.736Z" fill="#4D4962"/>
<path d="M129 81.1636V76.736C129 71.2131 133.477 66.736 139 66.736H191.172C196.695 66.736 201.172 71.2131 201.172 76.736V81.1635C201.172 86.6864 196.695 91.1635 191.172 91.1635H139C133.477 91.1635 129 86.6864 129 81.1636Z" fill="#2196F3" stroke="#4D4962" stroke-width="2"/>
<path d="M145.497 79.3165L142 78.2546L142.533 76.4731L146.03 77.7945L145.925 73.7359H147.697L147.581 77.8535L151.02 76.5557L151.553 78.349L147.998 79.4226L150.291 82.62L148.855 83.729L146.701 80.3311L144.617 83.6464L143.17 82.5728L145.497 79.3165Z" fill="#4D4962"/>
<path d="M163.615 79.3165L160.118 78.2546L160.651 76.4731L164.148 77.7945L164.043 73.7359H165.815L165.699 77.8535L169.138 76.5557L169.671 78.349L166.116 79.4226L168.409 82.62L166.973 83.729L164.819 80.3311L162.735 83.6464L161.287 82.5728L163.615 79.3165Z" fill="#4D4962"/>
<path d="M181.733 79.3165L178.236 78.2546L178.768 76.4731L182.266 77.7945L182.161 73.7359H183.933L183.817 77.8535L187.256 76.5557L187.789 78.349L184.234 79.4226L186.527 82.62L185.091 83.729L182.937 80.3311L180.853 83.6464L179.405 82.5728L181.733 79.3165Z" fill="#4D4962"/>
<path d="M131 101.929H156.538" stroke="#4D4962" stroke-width="2" stroke-linecap="round"/>
<path d="M176.069 180.771V216.288C176.069 221.811 180.546 226.288 186.069 226.288H227.138C232.661 226.288 237.138 221.811 237.138 216.288V180.771C237.138 175.248 232.661 170.771 227.138 170.771H186.069C180.546 170.771 176.069 175.248 176.069 180.771Z" fill="#4CAF50" stroke="#4D4962" stroke-width="2" stroke-linecap="round"/>
<path d="M209.853 199.592L209.055 199.978L209.343 200.817L213.172 211.964H200.038L203.868 200.817L204.157 199.973L203.352 199.59C202.127 199.006 201.098 198.103 200.38 196.988C199.661 195.874 199.28 194.59 199.276 193.281C199.276 191.414 200.041 189.618 201.411 188.289C202.783 186.958 204.65 186.205 206.603 186.205C208.557 186.205 210.424 186.958 211.796 188.289C213.167 189.618 213.931 191.415 213.931 193.282C213.931 196.033 212.283 198.417 209.853 199.592Z" stroke="#4D4962" stroke-width="2"/>
<path d="M216.892 169.66V170.66H217.892H220.853H223.814H224.814V169.66V160.777C224.814 155.8 222.837 151.027 219.317 147.508C215.798 143.989 211.025 142.012 206.048 142.012C201.071 142.012 196.298 143.989 192.779 147.508C189.26 151.027 187.283 155.8 187.283 160.777V169.66V170.66H188.283H194.205H195.205V169.66V160.777C195.205 157.901 196.347 155.143 198.381 153.11C200.414 151.076 203.172 149.934 206.048 149.934C208.924 149.934 211.682 151.076 213.716 153.11C215.749 155.143 216.892 157.901 216.892 160.777V169.66Z" fill="white" stroke="#4D4962" stroke-width="2"/>
<circle cx="24.5" cy="220.764" r="24.5" fill="#4CAF50"/>
<circle cx="355.5" cy="75.764" r="7.5" fill="#FFC300"/>
<circle cx="78.5" cy="255.764" r="7.5" fill="#FFC300"/>
<circle cx="341.5" cy="164.764" r="34" stroke="#2196F3" stroke-width="11"/>
<defs>
<filter id="filter0_d" x="42.3428" y="0.735962" width="307.657" height="319.152" filterUnits="userSpaceOnUse" color-interpolation-filters="sRGB">
<feFlood flood-opacity="0" result="BackgroundImageFix"/>
<feColorMatrix in="SourceAlpha" type="matrix" values="0 0 0 0 0 0 0 0 0 0 0 0 0 0 0 0 0 0 127 0" result="hardAlpha"/>
<feOffset dy="35"/>
<feGaussianBlur stdDeviation="11"/>
<feComposite in2="hardAlpha" operator="out"/>
<feColorMatrix type="matrix" values="0 0 0 0 0 0 0 0 0 0 0 0 0 0 0 0 0 0 0.03 0"/>
<feBlend mode="normal" in2="BackgroundImageFix" result="effect1_dropShadow"/>
<feBlend mode="normal" in="SourceGraphic" in2="effect1_dropShadow" result="shape"/>
</filter>
</defs>
</svg>
