<svg width="636" height="288" viewBox="0 0 636 288" fill="none" xmlns="http://www.w3.org/2000/svg">
<rect x="632" width="4" height="40" fill="#9B9B9B"/>
<rect x="632" y="40" width="4" height="40" fill="#9B9B9B"/>
<rect x="632" y="96" width="4" height="40" fill="#9B9B9B"/>
<rect x="632" y="136" width="4" height="40" fill="#9B9B9B"/>
<rect x="632" y="192" width="4" height="40" fill="#9B9B9B"/>
<rect x="632" y="248" width="4" height="40" fill="#9B9B9B"/>
<rect x="-0.00012207" width="8" height="40" fill="#FFC300"/>
<rect x="-0.00012207" y="56" width="8" height="40" fill="#FF6969"/>
<rect x="-0.00012207" y="96" width="8" height="40" fill="#FF6969"/>
<rect x="-0.00012207" y="152" width="8" height="40" fill="#735290"/>
<path opacity="0.2" fill-rule="evenodd" clip-rule="evenodd" d="M7.99988 0V40C320 40 320 40 632 40V0C320 0 320 0 7.99988 0Z" fill="#FFC300"/>
<path opacity="0.2" fill-rule="evenodd" clip-rule="evenodd" d="M7.99988 56V96C320 96 320 80 632 80V40C320 40 320 56 7.99988 56Z" fill="#FF6969"/>
<path opacity="0.2" fill-rule="evenodd" clip-rule="evenodd" d="M7.99988 152V192C320 192 320 136 632 136V96C320 96 320 152 7.99988 152Z" fill="#6445BC"/>
<path opacity="0.2" fill-rule="evenodd" clip-rule="evenodd" d="M7.99988 208V248C320 248 320 176 632 176V136C320 136 320 208 7.99988 208Z" fill="#34314C"/>
<path opacity="0.2" fill-rule="evenodd" clip-rule="evenodd" d="M7.99988 248V288C320 288 320 232 632 232V192C320 192 320 248 7.99988 248Z" fill="#34314C"/>
<path opacity="0.2" fill-rule="evenodd" clip-rule="evenodd" d="M7.99988 96V136C320 136 320 288 632 288V248C320 248 320 96 7.99988 96Z" fill="#FF6969"/>
<rect x="-0.00012207" y="208" width="8" height="40" fill="#34314C"/>
<rect x="-0.00012207" y="248" width="8" height="40" fill="#34314C"/>
<path d="M34.6239 24.544C33.5145 25.6533 32.1279 26.208 30.4639 26.208C28.7999 26.208 27.4079 25.6533 26.2879 24.544C25.1785 23.424 24.6239 22.0373 24.6239 20.384C24.6239 18.7307 25.1785 17.3547 26.2879 16.256C27.3972 15.1467 28.7892 14.592 30.4639 14.592C32.1279 14.592 33.5145 15.1467 34.6239 16.256C35.7332 17.3547 36.2879 18.7307 36.2879 20.384C36.2879 22.0373 35.7332 23.424 34.6239 24.544ZM27.5039 23.392C28.2719 24.2027 29.2585 24.608 30.4639 24.608C31.6692 24.608 32.6505 24.2027 33.4079 23.392C34.1652 22.5707 34.5439 21.5627 34.5439 20.368C34.5439 19.1947 34.1599 18.208 33.3919 17.408C32.6345 16.5973 31.6585 16.192 30.4639 16.192C29.2585 16.192 28.2719 16.5973 27.5039 17.408C26.7465 18.208 26.3679 19.1947 26.3679 20.368C26.3679 21.5627 26.7465 22.5707 27.5039 23.392ZM43.82 17.952H45.644L42.236 26H40.364L36.956 17.952H38.78L41.292 24.176L43.82 17.952ZM50.3806 26.208C49.1113 26.208 48.0766 25.8187 47.2766 25.04C46.4873 24.2613 46.0926 23.2427 46.0926 21.984C46.0926 20.768 46.4766 19.76 47.2446 18.96C48.0126 18.1493 49.01 17.744 50.2366 17.744C51.506 17.744 52.5033 18.1333 53.2286 18.912C53.9646 19.68 54.3326 20.6507 54.3326 21.824C54.3326 22.0267 54.3166 22.2507 54.2846 22.496H47.7406C47.794 23.1787 48.0553 23.728 48.5246 24.144C48.994 24.56 49.6233 24.768 50.4126 24.768C51.522 24.768 52.2846 24.336 52.7006 23.472L54.2366 23.92C53.9486 24.5493 53.474 25.088 52.8126 25.536C52.1513 25.984 51.3406 26.208 50.3806 26.208ZM47.7406 21.376L52.6846 21.36C52.6313 20.72 52.386 20.1973 51.9486 19.792C51.522 19.3867 50.9513 19.184 50.2366 19.184C49.5433 19.184 48.9673 19.3973 48.5086 19.824C48.0606 20.2507 47.8046 20.768 47.7406 21.376ZM57.7374 19.232C57.9827 18.7307 58.34 18.3573 58.8094 18.112C59.2894 17.856 59.8494 17.7707 60.4894 17.856V19.424C59.604 19.296 58.9214 19.472 58.4414 19.952C57.972 20.4213 57.7374 21.2267 57.7374 22.368V26H56.0574V17.952H57.7374V19.232ZM69.8181 26.208C68.5488 26.208 67.5141 25.8187 66.7141 25.04C65.9248 24.2613 65.5301 23.2427 65.5301 21.984C65.5301 20.768 65.9141 19.76 66.6821 18.96C67.4501 18.1493 68.4475 17.744 69.6741 17.744C70.9435 17.744 71.9408 18.1333 72.6661 18.912C73.4021 19.68 73.7701 20.6507 73.7701 21.824C73.7701 22.0267 73.7541 22.2507 73.7221 22.496H67.1781C67.2315 23.1787 67.4928 23.728 67.9621 24.144C68.4315 24.56 69.0608 24.768 69.8501 24.768C70.9595 24.768 71.7221 24.336 72.1381 23.472L73.6741 23.92C73.3861 24.5493 72.9115 25.088 72.2501 25.536C71.5888 25.984 70.7781 26.208 69.8181 26.208ZM67.1781 21.376L72.1221 21.36C72.0688 20.72 71.8235 20.1973 71.3861 19.792C70.9595 19.3867 70.3888 19.184 69.6741 19.184C68.9808 19.184 68.4048 19.3973 67.9461 19.824C67.4981 20.2507 67.2421 20.768 67.1781 21.376ZM82.4006 26H80.4646L78.2566 23.12L76.0326 26H74.0966L77.2006 21.936L74.2406 17.952H76.1606L78.2566 20.736L80.3366 17.952H82.2566L79.2966 21.936L82.4006 26ZM88.2111 17.744C89.3525 17.744 90.3071 18.1493 91.0751 18.96C91.8431 19.76 92.2271 20.7627 92.2271 21.968C92.2271 23.184 91.8431 24.1973 91.0751 25.008C90.3071 25.808 89.3525 26.208 88.2111 26.208C86.9631 26.208 86.0031 25.7333 85.3311 24.784V29.36H83.6511V17.952H85.3311V19.168C86.0031 18.2187 86.9631 17.744 88.2111 17.744ZM87.9391 24.704C88.7071 24.704 89.3365 24.448 89.8271 23.936C90.3178 23.4133 90.5631 22.7573 90.5631 21.968C90.5631 21.1787 90.3178 20.528 89.8271 20.016C89.3365 19.504 88.7071 19.248 87.9391 19.248C87.1925 19.248 86.5631 19.5093 86.0511 20.032C85.5391 20.544 85.2831 21.1893 85.2831 21.968C85.2831 22.7573 85.5391 23.4133 86.0511 23.936C86.5631 24.448 87.1925 24.704 87.9391 24.704ZM100.78 25.008C99.9693 25.808 98.9507 26.208 97.724 26.208C96.4973 26.208 95.4787 25.808 94.668 25.008C93.8573 24.1973 93.452 23.184 93.452 21.968C93.452 20.7627 93.8573 19.76 94.668 18.96C95.4787 18.1493 96.4973 17.744 97.724 17.744C98.9507 17.744 99.9693 18.1493 100.78 18.96C101.591 19.76 101.996 20.7627 101.996 21.968C101.996 23.184 101.591 24.1973 100.78 25.008ZM95.82 23.92C96.3213 24.432 96.956 24.688 97.724 24.688C98.492 24.688 99.1213 24.432 99.612 23.92C100.113 23.3973 100.364 22.752 100.364 21.984C100.364 21.2053 100.113 20.56 99.612 20.048C99.1213 19.5253 98.492 19.264 97.724 19.264C96.956 19.264 96.3213 19.5253 95.82 20.048C95.3293 20.56 95.084 21.2053 95.084 21.984C95.084 22.752 95.3293 23.3973 95.82 23.92ZM106.785 26.208C105.868 26.208 105.057 25.9733 104.353 25.504C103.66 25.024 103.207 24.4427 102.993 23.76L104.513 23.312C104.663 23.7493 104.945 24.112 105.361 24.4C105.788 24.688 106.279 24.832 106.833 24.832C107.335 24.832 107.74 24.7253 108.049 24.512C108.359 24.2987 108.513 24.0427 108.513 23.744C108.513 23.4987 108.433 23.3067 108.273 23.168C108.113 23.0187 107.847 22.8907 107.473 22.784L105.313 22.144C104.033 21.76 103.393 21.072 103.393 20.08C103.393 19.44 103.692 18.8907 104.289 18.432C104.887 17.9733 105.612 17.744 106.465 17.744C107.308 17.744 108.039 17.9307 108.657 18.304C109.276 18.6773 109.708 19.168 109.953 19.776L108.465 20.208C108.305 19.888 108.049 19.6213 107.697 19.408C107.345 19.1947 106.929 19.088 106.449 19.088C106.044 19.088 105.708 19.1893 105.441 19.392C105.175 19.584 105.041 19.808 105.041 20.064C105.041 20.416 105.329 20.6827 105.905 20.864L108.049 21.488C108.711 21.68 109.228 21.9413 109.601 22.272C109.975 22.592 110.161 23.0613 110.161 23.68C110.161 24.4053 109.841 25.008 109.201 25.488C108.572 25.968 107.767 26.208 106.785 26.208ZM117.665 17.952H119.329V26H117.665V24.784C117.014 25.7333 116.086 26.208 114.881 26.208C113.867 26.208 113.078 25.8933 112.513 25.264C111.958 24.6347 111.681 23.7707 111.681 22.672V17.952H113.361V22.368C113.361 23.0827 113.526 23.6427 113.857 24.048C114.198 24.4427 114.694 24.64 115.345 24.64C116.038 24.64 116.598 24.3947 117.025 23.904C117.451 23.4133 117.665 22.7627 117.665 21.952V17.952ZM123.253 19.232C123.498 18.7307 123.856 18.3573 124.325 18.112C124.805 17.856 125.365 17.7707 126.005 17.856V19.424C125.12 19.296 124.437 19.472 123.957 19.952C123.488 20.4213 123.253 21.2267 123.253 22.368V26H121.573V17.952H123.253V19.232ZM130.803 26.208C129.533 26.208 128.499 25.8187 127.699 25.04C126.909 24.2613 126.515 23.2427 126.515 21.984C126.515 20.768 126.899 19.76 127.667 18.96C128.435 18.1493 129.432 17.744 130.659 17.744C131.928 17.744 132.925 18.1333 133.651 18.912C134.387 19.68 134.755 20.6507 134.755 21.824C134.755 22.0267 134.739 22.2507 134.707 22.496H128.163C128.216 23.1787 128.477 23.728 128.947 24.144C129.416 24.56 130.045 24.768 130.835 24.768C131.944 24.768 132.707 24.336 133.123 23.472L134.659 23.92C134.371 24.5493 133.896 25.088 133.235 25.536C132.573 25.984 131.763 26.208 130.803 26.208ZM128.163 21.376L133.107 21.36C133.053 20.72 132.808 20.1973 132.371 19.792C131.944 19.3867 131.373 19.184 130.659 19.184C129.965 19.184 129.389 19.3973 128.931 19.824C128.483 20.2507 128.227 20.768 128.163 21.376Z" fill="#34314C"/>
<path d="M32.7039 90.8H34.4639V97.472C34.4639 98.9013 34.0425 100.048 33.1999 100.912C32.3679 101.776 31.2105 102.208 29.7279 102.208C28.2452 102.208 27.0879 101.781 26.2559 100.928C25.4239 100.064 25.0079 98.912 25.0079 97.472V90.8H26.7519V97.44C26.7519 98.4 27.0079 99.168 27.5199 99.744C28.0319 100.32 28.7679 100.608 29.7279 100.608C30.6879 100.608 31.4239 100.32 31.9359 99.744C32.4479 99.168 32.7039 98.4 32.7039 97.44V90.8ZM41.021 93.744C42.045 93.744 42.8343 94.0587 43.389 94.688C43.9437 95.3173 44.221 96.1813 44.221 97.28V102H42.557V97.584C42.557 96.8693 42.3863 96.3147 42.045 95.92C41.7143 95.5147 41.2237 95.312 40.573 95.312C39.869 95.312 39.3037 95.5573 38.877 96.048C38.461 96.5387 38.253 97.1893 38.253 98V102H36.573V93.952H38.253V95.152C38.9143 94.2133 39.837 93.744 41.021 93.744ZM49.4415 102.208C48.5242 102.208 47.7135 101.973 47.0095 101.504C46.3162 101.024 45.8628 100.443 45.6495 99.76L47.1695 99.312C47.3188 99.7493 47.6015 100.112 48.0175 100.4C48.4442 100.688 48.9348 100.832 49.4895 100.832C49.9908 100.832 50.3962 100.725 50.7055 100.512C51.0148 100.299 51.1695 100.043 51.1695 99.744C51.1695 99.4987 51.0895 99.3067 50.9295 99.168C50.7695 99.0187 50.5028 98.8907 50.1295 98.784L47.9695 98.144C46.6895 97.76 46.0495 97.072 46.0495 96.08C46.0495 95.44 46.3482 94.8907 46.9455 94.432C47.5428 93.9733 48.2682 93.744 49.1215 93.744C49.9642 93.744 50.6948 93.9307 51.3135 94.304C51.9322 94.6773 52.3642 95.168 52.6095 95.776L51.1215 96.208C50.9615 95.888 50.7055 95.6213 50.3535 95.408C50.0015 95.1947 49.5855 95.088 49.1055 95.088C48.7002 95.088 48.3642 95.1893 48.0975 95.392C47.8308 95.584 47.6975 95.808 47.6975 96.064C47.6975 96.416 47.9855 96.6827 48.5615 96.864L50.7055 97.488C51.3668 97.68 51.8842 97.9413 52.2575 98.272C52.6308 98.592 52.8175 99.0613 52.8175 99.68C52.8175 100.405 52.4975 101.008 51.8575 101.488C51.2282 101.968 50.4228 102.208 49.4415 102.208ZM58.2869 102.208C57.0175 102.208 55.9829 101.819 55.1829 101.04C54.3935 100.261 53.9989 99.2427 53.9989 97.984C53.9989 96.768 54.3829 95.76 55.1509 94.96C55.9189 94.1493 56.9162 93.744 58.1429 93.744C59.4122 93.744 60.4095 94.1333 61.1349 94.912C61.8709 95.68 62.2389 96.6507 62.2389 97.824C62.2389 98.0267 62.2229 98.2507 62.1909 98.496H55.6469C55.7002 99.1787 55.9615 99.728 56.4309 100.144C56.9002 100.56 57.5295 100.768 58.3189 100.768C59.4282 100.768 60.1909 100.336 60.6069 99.472L62.1429 99.92C61.8549 100.549 61.3802 101.088 60.7189 101.536C60.0575 101.984 59.2469 102.208 58.2869 102.208ZM55.6469 97.376L60.5909 97.36C60.5375 96.72 60.2922 96.1973 59.8549 95.792C59.4282 95.3867 58.8575 95.184 58.1429 95.184C57.4495 95.184 56.8735 95.3973 56.4149 95.824C55.9669 96.2507 55.7109 96.768 55.6469 97.376ZM67.6916 102.208C66.4756 102.208 65.4676 101.803 64.6676 100.992C63.8676 100.181 63.4676 99.1733 63.4676 97.968C63.4676 96.7627 63.8623 95.76 64.6516 94.96C65.4516 94.1493 66.4596 93.744 67.6756 93.744C68.6783 93.744 69.521 94.0053 70.2036 94.528C70.897 95.04 71.329 95.6267 71.4996 96.288L69.9476 96.736C69.8303 96.3413 69.5636 95.9947 69.1476 95.696C68.7316 95.3973 68.2463 95.248 67.6916 95.248C66.9236 95.248 66.2996 95.5147 65.8196 96.048C65.3396 96.5707 65.0996 97.2107 65.0996 97.968C65.0996 98.7147 65.3396 99.36 65.8196 99.904C66.3103 100.437 66.9343 100.704 67.6916 100.704C68.2463 100.704 68.7316 100.565 69.1476 100.288C69.5636 100 69.8303 99.6587 69.9476 99.264L71.4996 99.696C71.329 100.347 70.9023 100.928 70.2196 101.44C69.537 101.952 68.6943 102.208 67.6916 102.208ZM79.1333 93.952H80.7973V102H79.1333V100.784C78.4826 101.733 77.5546 102.208 76.3493 102.208C75.3359 102.208 74.5466 101.893 73.9813 101.264C73.4266 100.635 73.1493 99.7707 73.1493 98.672V93.952H74.8293V98.368C74.8293 99.0827 74.9946 99.6427 75.3253 100.048C75.6666 100.443 76.1626 100.64 76.8133 100.64C77.5066 100.64 78.0666 100.395 78.4933 99.904C78.9199 99.4133 79.1333 98.7627 79.1333 97.952V93.952ZM84.7218 95.232C84.9671 94.7307 85.3244 94.3573 85.7938 94.112C86.2738 93.856 86.8338 93.7707 87.4738 93.856V95.424C86.5884 95.296 85.9058 95.472 85.4258 95.952C84.9564 96.4213 84.7218 97.2267 84.7218 98.368V102H83.0418V93.952H84.7218V95.232ZM92.2713 102.208C91.0019 102.208 89.9673 101.819 89.1673 101.04C88.3779 100.261 87.9833 99.2427 87.9833 97.984C87.9833 96.768 88.3673 95.76 89.1353 94.96C89.9033 94.1493 90.9006 93.744 92.1273 93.744C93.3966 93.744 94.3939 94.1333 95.1193 94.912C95.8553 95.68 96.2233 96.6507 96.2233 97.824C96.2233 98.0267 96.2073 98.2507 96.1753 98.496H89.6313C89.6846 99.1787 89.9459 99.728 90.4153 100.144C90.8846 100.56 91.5139 100.768 92.3033 100.768C93.4126 100.768 94.1753 100.336 94.5913 99.472L96.1273 99.92C95.8393 100.549 95.3646 101.088 94.7033 101.536C94.0419 101.984 93.2313 102.208 92.2713 102.208ZM89.6313 97.376L94.5753 97.36C94.5219 96.72 94.2766 96.1973 93.8393 95.792C93.4126 95.3867 92.8419 95.184 92.1273 95.184C91.4339 95.184 90.8579 95.3973 90.3993 95.824C89.9513 96.2507 89.6953 96.768 89.6313 97.376ZM106.427 102.208C105.179 102.208 104.107 101.883 103.211 101.232C102.315 100.581 101.707 99.7813 101.387 98.832L103.035 98.336C103.291 99.0187 103.723 99.5787 104.331 100.016C104.95 100.453 105.68 100.672 106.523 100.672C107.27 100.672 107.878 100.496 108.347 100.144C108.827 99.792 109.067 99.3867 109.067 98.928C109.067 98.5547 108.928 98.24 108.651 97.984C108.384 97.728 107.931 97.4987 107.291 97.296L104.475 96.4C102.8 95.8773 101.963 94.9653 101.963 93.664C101.963 92.8213 102.331 92.1013 103.067 91.504C103.803 90.896 104.726 90.592 105.835 90.592C106.976 90.592 107.958 90.8587 108.779 91.392C109.611 91.9147 110.198 92.576 110.539 93.376L108.923 93.856C108.656 93.3333 108.251 92.9173 107.707 92.608C107.174 92.288 106.55 92.128 105.835 92.128C105.216 92.128 104.704 92.2773 104.299 92.576C103.904 92.864 103.707 93.2107 103.707 93.616C103.707 93.936 103.819 94.2027 104.043 94.416C104.267 94.6187 104.63 94.7947 105.131 94.944L107.883 95.824C108.854 96.1333 109.584 96.512 110.075 96.96C110.566 97.3973 110.811 98.016 110.811 98.816C110.811 99.776 110.4 100.581 109.579 101.232C108.768 101.883 107.718 102.208 106.427 102.208ZM117.084 93.744C118.108 93.744 118.897 94.0587 119.452 94.688C120.006 95.3173 120.284 96.1813 120.284 97.28V102H118.62V97.584C118.62 96.8693 118.449 96.3147 118.108 95.92C117.777 95.5147 117.286 95.312 116.636 95.312C115.932 95.312 115.366 95.5573 114.94 96.048C114.524 96.5387 114.316 97.1893 114.316 98V102H112.636V90.32H114.316V95.152C114.977 94.2133 115.9 93.744 117.084 93.744ZM125.952 102.208C124.811 102.208 123.856 101.808 123.088 101.008C122.331 100.197 121.952 99.184 121.952 97.968C121.952 96.7627 122.331 95.76 123.088 94.96C123.856 94.1493 124.811 93.744 125.952 93.744C127.211 93.744 128.176 94.2187 128.848 95.168V93.952H130.512V102H128.848V100.784C128.176 101.733 127.211 102.208 125.952 102.208ZM126.224 100.704C126.971 100.704 127.6 100.448 128.112 99.936C128.624 99.4133 128.88 98.7573 128.88 97.968C128.88 97.1893 128.624 96.544 128.112 96.032C127.6 95.5093 126.971 95.248 126.224 95.248C125.456 95.248 124.827 95.504 124.336 96.016C123.845 96.528 123.6 97.1787 123.6 97.968C123.6 98.7573 123.845 99.4133 124.336 99.936C124.827 100.448 125.456 100.704 126.224 100.704ZM134.425 95.232C134.67 94.7307 135.028 94.3573 135.497 94.112C135.977 93.856 136.537 93.7707 137.177 93.856V95.424C136.292 95.296 135.609 95.472 135.129 95.952C134.66 96.4213 134.425 97.2267 134.425 98.368V102H132.745V93.952H134.425V95.232ZM140.299 92.352C140.096 92.544 139.845 92.64 139.547 92.64C139.248 92.64 138.997 92.544 138.795 92.352C138.592 92.1493 138.491 91.8987 138.491 91.6C138.491 91.3227 138.592 91.0827 138.795 90.88C138.997 90.6773 139.248 90.576 139.547 90.576C139.845 90.576 140.096 90.6773 140.299 90.88C140.501 91.0827 140.603 91.3227 140.603 91.6C140.603 91.8987 140.501 92.1493 140.299 92.352ZM138.699 102V93.952H140.363V102H138.699ZM147.099 93.744C148.123 93.744 148.912 94.0587 149.467 94.688C150.022 95.3173 150.299 96.1813 150.299 97.28V102H148.635V97.584C148.635 96.8693 148.464 96.3147 148.123 95.92C147.792 95.5147 147.302 95.312 146.651 95.312C145.947 95.312 145.382 95.5573 144.955 96.048C144.539 96.5387 144.331 97.1893 144.331 98V102H142.651V93.952H144.331V95.152C144.992 94.2133 145.915 93.744 147.099 93.744ZM158.816 93.952H160.496V101.712C160.496 102.843 160.117 103.765 159.36 104.48C158.613 105.205 157.632 105.568 156.416 105.568C154.634 105.568 153.354 104.869 152.576 103.472L154.048 102.928C154.538 103.749 155.338 104.16 156.448 104.16C157.194 104.16 157.77 103.931 158.176 103.472C158.592 103.024 158.805 102.443 158.816 101.728V100.544C158.144 101.451 157.2 101.904 155.984 101.904C154.821 101.904 153.861 101.515 153.104 100.736C152.346 99.9573 151.968 98.9867 151.968 97.824C151.968 96.6293 152.341 95.6533 153.088 94.896C153.845 94.128 154.81 93.744 155.984 93.744C157.2 93.744 158.144 94.192 158.816 95.088V93.952ZM156.24 100.4C156.986 100.4 157.61 100.155 158.112 99.664C158.613 99.1733 158.864 98.56 158.864 97.824C158.864 97.088 158.613 96.48 158.112 96C157.61 95.5093 156.986 95.264 156.24 95.264C155.472 95.264 154.842 95.504 154.352 95.984C153.861 96.464 153.616 97.0773 153.616 97.824C153.616 98.5707 153.861 99.1893 154.352 99.68C154.842 100.16 155.472 100.4 156.24 100.4Z" fill="#34314C"/>
<path d="M34.6239 176.544C33.5145 177.653 32.1279 178.208 30.4639 178.208C28.7999 178.208 27.4079 177.653 26.2879 176.544C25.1785 175.424 24.6239 174.037 24.6239 172.384C24.6239 170.731 25.1785 169.355 26.2879 168.256C27.3972 167.147 28.7892 166.592 30.4639 166.592C32.1279 166.592 33.5145 167.147 34.6239 168.256C35.7332 169.355 36.2879 170.731 36.2879 172.384C36.2879 174.037 35.7332 175.424 34.6239 176.544ZM27.5039 175.392C28.2719 176.203 29.2585 176.608 30.4639 176.608C31.6692 176.608 32.6505 176.203 33.4079 175.392C34.1652 174.571 34.5439 173.563 34.5439 172.368C34.5439 171.195 34.1599 170.208 33.3919 169.408C32.6345 168.597 31.6585 168.192 30.4639 168.192C29.2585 168.192 28.2719 168.597 27.5039 169.408C26.7465 170.208 26.3679 171.195 26.3679 172.368C26.3679 173.563 26.7465 174.571 27.5039 175.392ZM43.82 169.952H45.644L42.236 178H40.364L36.956 169.952H38.78L41.292 176.176L43.82 169.952ZM50.3806 178.208C49.1113 178.208 48.0766 177.819 47.2766 177.04C46.4873 176.261 46.0926 175.243 46.0926 173.984C46.0926 172.768 46.4766 171.76 47.2446 170.96C48.0126 170.149 49.01 169.744 50.2366 169.744C51.506 169.744 52.5033 170.133 53.2286 170.912C53.9646 171.68 54.3326 172.651 54.3326 173.824C54.3326 174.027 54.3166 174.251 54.2846 174.496H47.7406C47.794 175.179 48.0553 175.728 48.5246 176.144C48.994 176.56 49.6233 176.768 50.4126 176.768C51.522 176.768 52.2846 176.336 52.7006 175.472L54.2366 175.92C53.9486 176.549 53.474 177.088 52.8126 177.536C52.1513 177.984 51.3406 178.208 50.3806 178.208ZM47.7406 173.376L52.6846 173.36C52.6313 172.72 52.386 172.197 51.9486 171.792C51.522 171.387 50.9513 171.184 50.2366 171.184C49.5433 171.184 48.9673 171.397 48.5086 171.824C48.0606 172.251 47.8046 172.768 47.7406 173.376ZM57.7374 171.232C57.9827 170.731 58.34 170.357 58.8094 170.112C59.2894 169.856 59.8494 169.771 60.4894 169.856V171.424C59.604 171.296 58.9214 171.472 58.4414 171.952C57.972 172.421 57.7374 173.227 57.7374 174.368V178H56.0574V169.952H57.7374V171.232ZM70.4581 178.208C69.2101 178.208 68.1381 177.883 67.2421 177.232C66.3461 176.581 65.7381 175.781 65.4181 174.832L67.0661 174.336C67.3221 175.019 67.7541 175.579 68.3621 176.016C68.9808 176.453 69.7115 176.672 70.5541 176.672C71.3008 176.672 71.9088 176.496 72.3781 176.144C72.8581 175.792 73.0981 175.387 73.0981 174.928C73.0981 174.555 72.9595 174.24 72.6821 173.984C72.4155 173.728 71.9621 173.499 71.3221 173.296L68.5061 172.4C66.8315 171.877 65.9941 170.965 65.9941 169.664C65.9941 168.821 66.3621 168.101 67.0981 167.504C67.8341 166.896 68.7568 166.592 69.8661 166.592C71.0075 166.592 71.9888 166.859 72.8101 167.392C73.6421 167.915 74.2288 168.576 74.5701 169.376L72.9541 169.856C72.6875 169.333 72.2821 168.917 71.7381 168.608C71.2048 168.288 70.5808 168.128 69.8661 168.128C69.2475 168.128 68.7355 168.277 68.3301 168.576C67.9355 168.864 67.7381 169.211 67.7381 169.616C67.7381 169.936 67.8501 170.203 68.0741 170.416C68.2981 170.619 68.6608 170.795 69.1621 170.944L71.9141 171.824C72.8848 172.133 73.6155 172.512 74.1061 172.96C74.5968 173.397 74.8421 174.016 74.8421 174.816C74.8421 175.776 74.4315 176.581 73.6101 177.232C72.7995 177.883 71.7488 178.208 70.4581 178.208ZM81.1148 169.744C82.1388 169.744 82.9281 170.059 83.4828 170.688C84.0374 171.317 84.3148 172.181 84.3148 173.28V178H82.6508V173.584C82.6508 172.869 82.4801 172.315 82.1388 171.92C81.8081 171.515 81.3174 171.312 80.6668 171.312C79.9628 171.312 79.3974 171.557 78.9708 172.048C78.5548 172.539 78.3468 173.189 78.3468 174V178H76.6668V166.32H78.3468V171.152C79.0081 170.213 79.9308 169.744 81.1148 169.744ZM89.9833 178.208C88.8419 178.208 87.8873 177.808 87.1193 177.008C86.3619 176.197 85.9833 175.184 85.9833 173.968C85.9833 172.763 86.3619 171.76 87.1193 170.96C87.8873 170.149 88.8419 169.744 89.9833 169.744C91.2419 169.744 92.2073 170.219 92.8793 171.168V169.952H94.5433V178H92.8793V176.784C92.2073 177.733 91.2419 178.208 89.9833 178.208ZM90.2553 176.704C91.0019 176.704 91.6313 176.448 92.1433 175.936C92.6553 175.413 92.9113 174.757 92.9113 173.968C92.9113 173.189 92.6553 172.544 92.1433 172.032C91.6313 171.509 91.0019 171.248 90.2553 171.248C89.4873 171.248 88.8579 171.504 88.3673 172.016C87.8766 172.528 87.6313 173.179 87.6313 173.968C87.6313 174.757 87.8766 175.413 88.3673 175.936C88.8579 176.448 89.4873 176.704 90.2553 176.704ZM98.4561 171.232C98.7015 170.731 99.0588 170.357 99.5281 170.112C100.008 169.856 100.568 169.771 101.208 169.856V171.424C100.323 171.296 99.6401 171.472 99.1601 171.952C98.6908 172.421 98.4561 173.227 98.4561 174.368V178H96.7761V169.952H98.4561V171.232ZM104.33 168.352C104.127 168.544 103.877 168.64 103.578 168.64C103.279 168.64 103.029 168.544 102.826 168.352C102.623 168.149 102.522 167.899 102.522 167.6C102.522 167.323 102.623 167.083 102.826 166.88C103.029 166.677 103.279 166.576 103.578 166.576C103.877 166.576 104.127 166.677 104.33 166.88C104.533 167.083 104.634 167.323 104.634 167.6C104.634 167.899 104.533 168.149 104.33 168.352ZM102.73 178V169.952H104.394V178H102.73ZM111.13 169.744C112.154 169.744 112.944 170.059 113.498 170.688C114.053 171.317 114.33 172.181 114.33 173.28V178H112.666V173.584C112.666 172.869 112.496 172.315 112.154 171.92C111.824 171.515 111.333 171.312 110.682 171.312C109.978 171.312 109.413 171.557 108.986 172.048C108.57 172.539 108.362 173.189 108.362 174V178H106.682V169.952H108.362V171.152C109.024 170.213 109.946 169.744 111.13 169.744ZM122.847 169.952H124.527V177.712C124.527 178.843 124.148 179.765 123.391 180.48C122.644 181.205 121.663 181.568 120.447 181.568C118.666 181.568 117.386 180.869 116.607 179.472L118.079 178.928C118.57 179.749 119.37 180.16 120.479 180.16C121.226 180.16 121.802 179.931 122.207 179.472C122.623 179.024 122.836 178.443 122.847 177.728V176.544C122.175 177.451 121.231 177.904 120.015 177.904C118.852 177.904 117.892 177.515 117.135 176.736C116.378 175.957 115.999 174.987 115.999 173.824C115.999 172.629 116.372 171.653 117.119 170.896C117.876 170.128 118.842 169.744 120.015 169.744C121.231 169.744 122.175 170.192 122.847 171.088V169.952ZM120.271 176.4C121.018 176.4 121.642 176.155 122.143 175.664C122.644 175.173 122.895 174.56 122.895 173.824C122.895 173.088 122.644 172.48 122.143 172C121.642 171.509 121.018 171.264 120.271 171.264C119.503 171.264 118.874 171.504 118.383 171.984C117.892 172.464 117.647 173.077 117.647 173.824C117.647 174.571 117.892 175.189 118.383 175.68C118.874 176.16 119.503 176.4 120.271 176.4Z" fill="#34314C"/>
<path d="M501.12 47V35.8H502.88V47H501.12ZM509.568 38.744C510.592 38.744 511.381 39.0587 511.936 39.688C512.491 40.3173 512.768 41.1813 512.768 42.28V47H511.104V42.584C511.104 41.8693 510.933 41.3147 510.592 40.92C510.261 40.5147 509.771 40.312 509.12 40.312C508.416 40.312 507.851 40.5573 507.424 41.048C507.008 41.5387 506.8 42.1893 506.8 43V47H505.12V38.952H506.8V40.152C507.461 39.2133 508.384 38.744 509.568 38.744ZM517.989 47.208C517.071 47.208 516.261 46.9733 515.557 46.504C514.863 46.024 514.41 45.4427 514.197 44.76L515.717 44.312C515.866 44.7493 516.149 45.112 516.565 45.4C516.991 45.688 517.482 45.832 518.037 45.832C518.538 45.832 518.943 45.7253 519.253 45.512C519.562 45.2987 519.717 45.0427 519.717 44.744C519.717 44.4987 519.637 44.3067 519.477 44.168C519.317 44.0187 519.05 43.8907 518.677 43.784L516.517 43.144C515.237 42.76 514.597 42.072 514.597 41.08C514.597 40.44 514.895 39.8907 515.493 39.432C516.09 38.9733 516.815 38.744 517.669 38.744C518.511 38.744 519.242 38.9307 519.861 39.304C520.479 39.6773 520.911 40.168 521.157 40.776L519.669 41.208C519.509 40.888 519.253 40.6213 518.901 40.408C518.549 40.1947 518.133 40.088 517.653 40.088C517.247 40.088 516.911 40.1893 516.645 40.392C516.378 40.584 516.245 40.808 516.245 41.064C516.245 41.416 516.533 41.6827 517.109 41.864L519.253 42.488C519.914 42.68 520.431 42.9413 520.805 43.272C521.178 43.592 521.365 44.0613 521.365 44.68C521.365 45.4053 521.045 46.008 520.405 46.488C519.775 46.968 518.97 47.208 517.989 47.208ZM524.799 37.352C524.596 37.544 524.346 37.64 524.047 37.64C523.748 37.64 523.498 37.544 523.295 37.352C523.092 37.1493 522.991 36.8987 522.991 36.6C522.991 36.3227 523.092 36.0827 523.295 35.88C523.498 35.6773 523.748 35.576 524.047 35.576C524.346 35.576 524.596 35.6773 524.799 35.88C525.002 36.0827 525.103 36.3227 525.103 36.6C525.103 36.8987 525.002 37.1493 524.799 37.352ZM523.199 47V38.952H524.863V47H523.199ZM533.551 35.32H535.215V47H533.551V45.784C532.879 46.7333 531.914 47.208 530.655 47.208C529.514 47.208 528.559 46.808 527.791 46.008C527.034 45.1973 526.655 44.184 526.655 42.968C526.655 41.7627 527.034 40.76 527.791 39.96C528.559 39.1493 529.514 38.744 530.655 38.744C531.914 38.744 532.879 39.2187 533.551 40.168V35.32ZM530.927 45.704C531.674 45.704 532.303 45.448 532.815 44.936C533.327 44.4133 533.583 43.7573 533.583 42.968C533.583 42.1893 533.327 41.544 532.815 41.032C532.303 40.5093 531.674 40.248 530.927 40.248C530.159 40.248 529.53 40.504 529.039 41.016C528.549 41.528 528.303 42.1787 528.303 42.968C528.303 43.7573 528.549 44.4133 529.039 44.936C529.53 45.448 530.159 45.704 530.927 45.704ZM541.24 47.208C539.971 47.208 538.936 46.8187 538.136 46.04C537.347 45.2613 536.952 44.2427 536.952 42.984C536.952 41.768 537.336 40.76 538.104 39.96C538.872 39.1493 539.87 38.744 541.096 38.744C542.366 38.744 543.363 39.1333 544.088 39.912C544.824 40.68 545.192 41.6507 545.192 42.824C545.192 43.0267 545.176 43.2507 545.144 43.496H538.6C538.654 44.1787 538.915 44.728 539.384 45.144C539.854 45.56 540.483 45.768 541.272 45.768C542.382 45.768 543.144 45.336 543.56 44.472L545.096 44.92C544.808 45.5493 544.334 46.088 543.672 46.536C543.011 46.984 542.2 47.208 541.24 47.208ZM538.6 42.376L543.544 42.36C543.491 41.72 543.246 41.1973 542.808 40.792C542.382 40.3867 541.811 40.184 541.096 40.184C540.403 40.184 539.827 40.3973 539.368 40.824C538.92 41.2507 538.664 41.768 538.6 42.376ZM548.597 40.232C548.842 39.7307 549.2 39.3573 549.669 39.112C550.149 38.856 550.709 38.7707 551.349 38.856V40.424C550.464 40.296 549.781 40.472 549.301 40.952C548.832 41.4213 548.597 42.2267 548.597 43.368V47H546.917V38.952H548.597V40.232ZM565.638 35.8V37.368H561.702V47H559.958V37.368H556.006V35.8H565.638ZM571.443 38.744C572.467 38.744 573.256 39.0587 573.811 39.688C574.366 40.3173 574.643 41.1813 574.643 42.28V47H572.979V42.584C572.979 41.8693 572.808 41.3147 572.467 40.92C572.136 40.5147 571.646 40.312 570.995 40.312C570.291 40.312 569.726 40.5573 569.299 41.048C568.883 41.5387 568.675 42.1893 568.675 43V47H566.995V35.32H568.675V40.152C569.336 39.2133 570.259 38.744 571.443 38.744ZM578.488 40.232C578.733 39.7307 579.09 39.3573 579.56 39.112C580.04 38.856 580.6 38.7707 581.24 38.856V40.424C580.354 40.296 579.672 40.472 579.192 40.952C578.722 41.4213 578.488 42.2267 578.488 43.368V47H576.808V38.952H578.488V40.232ZM586.037 47.208C584.768 47.208 583.733 46.8187 582.933 46.04C582.144 45.2613 581.749 44.2427 581.749 42.984C581.749 41.768 582.133 40.76 582.901 39.96C583.669 39.1493 584.666 38.744 585.893 38.744C587.162 38.744 588.16 39.1333 588.885 39.912C589.621 40.68 589.989 41.6507 589.989 42.824C589.989 43.0267 589.973 43.2507 589.941 43.496H583.397C583.45 44.1787 583.712 44.728 584.181 45.144C584.65 45.56 585.28 45.768 586.069 45.768C587.178 45.768 587.941 45.336 588.357 44.472L589.893 44.92C589.605 45.5493 589.13 46.088 588.469 46.536C587.808 46.984 586.997 47.208 586.037 47.208ZM583.397 42.376L588.341 42.36C588.288 41.72 588.042 41.1973 587.605 40.792C587.178 40.3867 586.608 40.184 585.893 40.184C585.2 40.184 584.624 40.3973 584.165 40.824C583.717 41.2507 583.461 41.768 583.397 42.376ZM595.218 47.208C594.077 47.208 593.122 46.808 592.354 46.008C591.597 45.1973 591.218 44.184 591.218 42.968C591.218 41.7627 591.597 40.76 592.354 39.96C593.122 39.1493 594.077 38.744 595.218 38.744C596.477 38.744 597.442 39.2187 598.114 40.168V38.952H599.778V47H598.114V45.784C597.442 46.7333 596.477 47.208 595.218 47.208ZM595.49 45.704C596.237 45.704 596.866 45.448 597.378 44.936C597.89 44.4133 598.146 43.7573 598.146 42.968C598.146 42.1893 597.89 41.544 597.378 41.032C596.866 40.5093 596.237 40.248 595.49 40.248C594.722 40.248 594.093 40.504 593.602 41.016C593.111 41.528 592.866 42.1787 592.866 42.968C592.866 43.7573 593.111 44.4133 593.602 44.936C594.093 45.448 594.722 45.704 595.49 45.704ZM606.523 45.368L606.939 46.744C606.331 47 605.739 47.128 605.163 47.128C604.32 47.128 603.691 46.888 603.275 46.408C602.859 45.9173 602.651 45.2453 602.651 44.392V40.44H601.179V38.952H602.651V36.264H604.315V38.952H606.875V40.44H604.315V44.392C604.315 45.2133 604.699 45.624 605.467 45.624C605.819 45.624 606.171 45.5387 606.523 45.368ZM611.567 47.208C610.649 47.208 609.839 46.9733 609.135 46.504C608.441 46.024 607.988 45.4427 607.775 44.76L609.295 44.312C609.444 44.7493 609.727 45.112 610.143 45.4C610.569 45.688 611.06 45.832 611.615 45.832C612.116 45.832 612.521 45.7253 612.831 45.512C613.14 45.2987 613.295 45.0427 613.295 44.744C613.295 44.4987 613.215 44.3067 613.055 44.168C612.895 44.0187 612.628 43.8907 612.255 43.784L610.095 43.144C608.815 42.76 608.175 42.072 608.175 41.08C608.175 40.44 608.473 39.8907 609.071 39.432C609.668 38.9733 610.393 38.744 611.247 38.744C612.089 38.744 612.82 38.9307 613.439 39.304C614.057 39.6773 614.489 40.168 614.735 40.776L613.247 41.208C613.087 40.888 612.831 40.6213 612.479 40.408C612.127 40.1947 611.711 40.088 611.231 40.088C610.825 40.088 610.489 40.1893 610.223 40.392C609.956 40.584 609.823 40.808 609.823 41.064C609.823 41.416 610.111 41.6827 610.687 41.864L612.831 42.488C613.492 42.68 614.009 42.9413 614.383 43.272C614.756 43.592 614.943 44.0613 614.943 44.68C614.943 45.4053 614.623 46.008 613.983 46.488C613.353 46.968 612.548 47.208 611.567 47.208Z" fill="#34314C"/>
<path d="M505.68 130.8C507.333 130.8 508.651 131.323 509.632 132.368C510.624 133.403 511.12 134.747 511.12 136.4C511.12 138.043 510.629 139.387 509.648 140.432C508.667 141.477 507.344 142 505.68 142H501.12V130.8H505.68ZM505.648 140.432C506.789 140.432 507.696 140.053 508.368 139.296C509.04 138.539 509.376 137.563 509.376 136.368C509.376 135.195 509.04 134.235 508.368 133.488C507.696 132.741 506.789 132.368 505.648 132.368H502.848V140.432H505.648ZM516.374 142.208C515.233 142.208 514.278 141.808 513.51 141.008C512.753 140.197 512.374 139.184 512.374 137.968C512.374 136.763 512.753 135.76 513.51 134.96C514.278 134.149 515.233 133.744 516.374 133.744C517.633 133.744 518.598 134.219 519.27 135.168V133.952H520.934V142H519.27V140.784C518.598 141.733 517.633 142.208 516.374 142.208ZM516.646 140.704C517.393 140.704 518.022 140.448 518.534 139.936C519.046 139.413 519.302 138.757 519.302 137.968C519.302 137.189 519.046 136.544 518.534 136.032C518.022 135.509 517.393 135.248 516.646 135.248C515.878 135.248 515.249 135.504 514.758 136.016C514.267 136.528 514.022 137.179 514.022 137.968C514.022 138.757 514.267 139.413 514.758 139.936C515.249 140.448 515.878 140.704 516.646 140.704ZM527.679 140.368L528.095 141.744C527.487 142 526.895 142.128 526.319 142.128C525.476 142.128 524.847 141.888 524.431 141.408C524.015 140.917 523.807 140.245 523.807 139.392V135.44H522.335V133.952H523.807V131.264H525.471V133.952H528.031V135.44H525.471V139.392C525.471 140.213 525.855 140.624 526.623 140.624C526.975 140.624 527.327 140.539 527.679 140.368ZM532.796 142.208C531.655 142.208 530.7 141.808 529.932 141.008C529.175 140.197 528.796 139.184 528.796 137.968C528.796 136.763 529.175 135.76 529.932 134.96C530.7 134.149 531.655 133.744 532.796 133.744C534.055 133.744 535.02 134.219 535.692 135.168V133.952H537.356V142H535.692V140.784C535.02 141.733 534.055 142.208 532.796 142.208ZM533.068 140.704C533.815 140.704 534.444 140.448 534.956 139.936C535.468 139.413 535.724 138.757 535.724 137.968C535.724 137.189 535.468 136.544 534.956 136.032C534.444 135.509 533.815 135.248 533.068 135.248C532.3 135.248 531.671 135.504 531.18 136.016C530.689 136.528 530.444 137.179 530.444 137.968C530.444 138.757 530.689 139.413 531.18 139.936C531.671 140.448 532.3 140.704 533.068 140.704ZM550.964 136.144C551.561 136.379 552.025 136.731 552.356 137.2C552.697 137.669 552.868 138.224 552.868 138.864C552.868 139.792 552.537 140.549 551.876 141.136C551.214 141.712 550.318 142 549.188 142H543.636V130.8H548.852C549.897 130.8 550.75 131.072 551.412 131.616C552.073 132.16 552.409 132.869 552.42 133.744C552.43 134.843 551.945 135.643 550.964 136.144ZM548.82 132.304H545.348V135.584H548.916C549.46 135.584 549.897 135.424 550.228 135.104C550.569 134.784 550.734 134.395 550.724 133.936C550.724 133.456 550.548 133.067 550.196 132.768C549.844 132.459 549.385 132.304 548.82 132.304ZM549.156 140.48C549.764 140.48 550.244 140.309 550.596 139.968C550.958 139.627 551.14 139.205 551.14 138.704C551.14 138.224 550.964 137.819 550.612 137.488C550.26 137.147 549.78 136.976 549.172 136.976H545.348V140.48H549.156ZM556.347 135.232C556.592 134.731 556.95 134.357 557.419 134.112C557.899 133.856 558.459 133.771 559.099 133.856V135.424C558.214 135.296 557.531 135.472 557.051 135.952C556.582 136.421 556.347 137.227 556.347 138.368V142H554.667V133.952H556.347V135.232ZM563.896 142.208C562.627 142.208 561.592 141.819 560.792 141.04C560.003 140.261 559.608 139.243 559.608 137.984C559.608 136.768 559.992 135.76 560.76 134.96C561.528 134.149 562.526 133.744 563.752 133.744C565.022 133.744 566.019 134.133 566.744 134.912C567.48 135.68 567.848 136.651 567.848 137.824C567.848 138.027 567.832 138.251 567.8 138.496H561.256C561.31 139.179 561.571 139.728 562.04 140.144C562.51 140.56 563.139 140.768 563.928 140.768C565.038 140.768 565.8 140.336 566.216 139.472L567.752 139.92C567.464 140.549 566.99 141.088 566.328 141.536C565.667 141.984 564.856 142.208 563.896 142.208ZM561.256 137.376L566.2 137.36C566.147 136.72 565.902 136.197 565.464 135.792C565.038 135.387 564.467 135.184 563.752 135.184C563.059 135.184 562.483 135.397 562.024 135.824C561.576 136.251 561.32 136.768 561.256 137.376ZM573.077 142.208C571.936 142.208 570.981 141.808 570.213 141.008C569.456 140.197 569.077 139.184 569.077 137.968C569.077 136.763 569.456 135.76 570.213 134.96C570.981 134.149 571.936 133.744 573.077 133.744C574.336 133.744 575.301 134.219 575.973 135.168V133.952H577.637V142H575.973V140.784C575.301 141.733 574.336 142.208 573.077 142.208ZM573.349 140.704C574.096 140.704 574.725 140.448 575.237 139.936C575.749 139.413 576.005 138.757 576.005 137.968C576.005 137.189 575.749 136.544 575.237 136.032C574.725 135.509 574.096 135.248 573.349 135.248C572.581 135.248 571.952 135.504 571.461 136.016C570.97 136.528 570.725 137.179 570.725 137.968C570.725 138.757 570.97 139.413 571.461 139.936C571.952 140.448 572.581 140.704 573.349 140.704ZM583.598 142.208C582.382 142.208 581.374 141.803 580.574 140.992C579.774 140.181 579.374 139.173 579.374 137.968C579.374 136.763 579.769 135.76 580.558 134.96C581.358 134.149 582.366 133.744 583.582 133.744C584.585 133.744 585.427 134.005 586.11 134.528C586.803 135.04 587.235 135.627 587.406 136.288L585.854 136.736C585.737 136.341 585.47 135.995 585.054 135.696C584.638 135.397 584.153 135.248 583.598 135.248C582.83 135.248 582.206 135.515 581.726 136.048C581.246 136.571 581.006 137.211 581.006 137.968C581.006 138.715 581.246 139.36 581.726 139.904C582.217 140.437 582.841 140.704 583.598 140.704C584.153 140.704 584.638 140.565 585.054 140.288C585.47 140 585.737 139.659 585.854 139.264L587.406 139.696C587.235 140.347 586.809 140.928 586.126 141.44C585.443 141.952 584.601 142.208 583.598 142.208ZM593.506 133.744C594.53 133.744 595.319 134.059 595.874 134.688C596.428 135.317 596.706 136.181 596.706 137.28V142H595.042V137.584C595.042 136.869 594.871 136.315 594.53 135.92C594.199 135.515 593.708 135.312 593.058 135.312C592.354 135.312 591.788 135.557 591.362 136.048C590.946 136.539 590.738 137.189 590.738 138V142H589.058V130.32H590.738V135.152C591.399 134.213 592.322 133.744 593.506 133.744ZM602.662 142.208C601.393 142.208 600.358 141.819 599.558 141.04C598.769 140.261 598.374 139.243 598.374 137.984C598.374 136.768 598.758 135.76 599.526 134.96C600.294 134.149 601.291 133.744 602.518 133.744C603.787 133.744 604.785 134.133 605.51 134.912C606.246 135.68 606.614 136.651 606.614 137.824C606.614 138.027 606.598 138.251 606.566 138.496H600.022C600.075 139.179 600.337 139.728 600.806 140.144C601.275 140.56 601.905 140.768 602.694 140.768C603.803 140.768 604.566 140.336 604.982 139.472L606.518 139.92C606.23 140.549 605.755 141.088 605.094 141.536C604.433 141.984 603.622 142.208 602.662 142.208ZM600.022 137.376L604.966 137.36C604.913 136.72 604.667 136.197 604.23 135.792C603.803 135.387 603.233 135.184 602.518 135.184C601.825 135.184 601.249 135.397 600.79 135.824C600.342 136.251 600.086 136.768 600.022 137.376ZM611.395 142.208C610.477 142.208 609.667 141.973 608.963 141.504C608.269 141.024 607.816 140.443 607.603 139.76L609.123 139.312C609.272 139.749 609.555 140.112 609.971 140.4C610.397 140.688 610.888 140.832 611.443 140.832C611.944 140.832 612.349 140.725 612.659 140.512C612.968 140.299 613.123 140.043 613.123 139.744C613.123 139.499 613.043 139.307 612.883 139.168C612.723 139.019 612.456 138.891 612.083 138.784L609.923 138.144C608.643 137.76 608.003 137.072 608.003 136.08C608.003 135.44 608.301 134.891 608.899 134.432C609.496 133.973 610.221 133.744 611.075 133.744C611.917 133.744 612.648 133.931 613.267 134.304C613.885 134.677 614.317 135.168 614.563 135.776L613.075 136.208C612.915 135.888 612.659 135.621 612.307 135.408C611.955 135.195 611.539 135.088 611.059 135.088C610.653 135.088 610.317 135.189 610.051 135.392C609.784 135.584 609.651 135.808 609.651 136.064C609.651 136.416 609.939 136.683 610.515 136.864L612.659 137.488C613.32 137.68 613.837 137.941 614.211 138.272C614.584 138.592 614.771 139.061 614.771 139.68C614.771 140.405 614.451 141.008 613.811 141.488C613.181 141.968 612.376 142.208 611.395 142.208Z" fill="#34314C"/>
<path d="M523.416 219L520.68 214.84H517.848V219H516.12V207.8H521.448C522.568 207.8 523.459 208.157 524.12 208.872C524.792 209.587 525.128 210.408 525.128 211.336C525.128 212.104 524.899 212.803 524.44 213.432C523.981 214.061 523.341 214.483 522.52 214.696L525.416 219H523.416ZM517.848 209.352V213.304H521.352C521.981 213.304 522.488 213.112 522.872 212.728C523.256 212.344 523.448 211.88 523.448 211.336C523.448 210.792 523.256 210.328 522.872 209.944C522.499 209.549 522.008 209.352 521.4 209.352H517.848ZM530.28 219.208C529.139 219.208 528.184 218.808 527.416 218.008C526.659 217.197 526.28 216.184 526.28 214.968C526.28 213.763 526.659 212.76 527.416 211.96C528.184 211.149 529.139 210.744 530.28 210.744C531.539 210.744 532.504 211.219 533.176 212.168V210.952H534.84V219H533.176V217.784C532.504 218.733 531.539 219.208 530.28 219.208ZM530.552 217.704C531.299 217.704 531.928 217.448 532.44 216.936C532.952 216.413 533.208 215.757 533.208 214.968C533.208 214.189 532.952 213.544 532.44 213.032C531.928 212.509 531.299 212.248 530.552 212.248C529.784 212.248 529.155 212.504 528.664 213.016C528.174 213.528 527.928 214.179 527.928 214.968C527.928 215.757 528.174 216.413 528.664 216.936C529.155 217.448 529.784 217.704 530.552 217.704ZM541.521 210.744C542.545 210.744 543.335 211.059 543.889 211.688C544.444 212.317 544.721 213.181 544.721 214.28V219H543.057V214.584C543.057 213.869 542.887 213.315 542.545 212.92C542.215 212.515 541.724 212.312 541.073 212.312C540.369 212.312 539.804 212.557 539.377 213.048C538.961 213.539 538.753 214.189 538.753 215V219H537.073V210.952H538.753V212.152C539.415 211.213 540.337 210.744 541.521 210.744ZM549.942 219.208C549.024 219.208 548.214 218.973 547.51 218.504C546.816 218.024 546.363 217.443 546.15 216.76L547.67 216.312C547.819 216.749 548.102 217.112 548.518 217.4C548.944 217.688 549.435 217.832 549.99 217.832C550.491 217.832 550.896 217.725 551.206 217.512C551.515 217.299 551.67 217.043 551.67 216.744C551.67 216.499 551.59 216.307 551.43 216.168C551.27 216.019 551.003 215.891 550.63 215.784L548.47 215.144C547.19 214.76 546.55 214.072 546.55 213.08C546.55 212.44 546.848 211.891 547.446 211.432C548.043 210.973 548.768 210.744 549.622 210.744C550.464 210.744 551.195 210.931 551.814 211.304C552.432 211.677 552.864 212.168 553.11 212.776L551.622 213.208C551.462 212.888 551.206 212.621 550.854 212.408C550.502 212.195 550.086 212.088 549.606 212.088C549.2 212.088 548.864 212.189 548.598 212.392C548.331 212.584 548.198 212.808 548.198 213.064C548.198 213.416 548.486 213.683 549.062 213.864L551.206 214.488C551.867 214.68 552.384 214.941 552.758 215.272C553.131 215.592 553.318 216.061 553.318 216.68C553.318 217.405 552.998 218.008 552.358 218.488C551.728 218.968 550.923 219.208 549.942 219.208ZM561.827 218.008C561.016 218.808 559.998 219.208 558.771 219.208C557.544 219.208 556.526 218.808 555.715 218.008C554.904 217.197 554.499 216.184 554.499 214.968C554.499 213.763 554.904 212.76 555.715 211.96C556.526 211.149 557.544 210.744 558.771 210.744C559.998 210.744 561.016 211.149 561.827 211.96C562.638 212.76 563.043 213.763 563.043 214.968C563.043 216.184 562.638 217.197 561.827 218.008ZM556.867 216.92C557.368 217.432 558.003 217.688 558.771 217.688C559.539 217.688 560.168 217.432 560.659 216.92C561.16 216.397 561.411 215.752 561.411 214.984C561.411 214.205 561.16 213.56 560.659 213.048C560.168 212.525 559.539 212.264 558.771 212.264C558.003 212.264 557.368 212.525 556.867 213.048C556.376 213.56 556.131 214.205 556.131 214.984C556.131 215.752 556.376 216.397 556.867 216.92ZM574.28 210.744C575.24 210.744 576.003 211.048 576.568 211.656C577.144 212.264 577.432 213.107 577.432 214.184V219H575.752V214.504C575.752 213.811 575.598 213.272 575.288 212.888C574.99 212.504 574.542 212.312 573.944 212.312C573.326 212.312 572.835 212.536 572.472 212.984C572.11 213.432 571.928 214.035 571.928 214.792V219H570.264V214.504C570.264 213.811 570.115 213.272 569.816 212.888C569.528 212.504 569.096 212.312 568.52 212.312C567.88 212.312 567.374 212.547 567 213.016C566.638 213.485 566.456 214.125 566.456 214.936V219H564.776V210.952H566.456V212.072C567.064 211.187 567.907 210.744 568.984 210.744C570.158 210.744 570.984 211.203 571.464 212.12C572.072 211.203 573.011 210.744 574.28 210.744ZM588.847 210.952H590.591L587.823 219H586.223L584.383 213.368L582.543 219H580.959L578.191 210.952H579.919L581.807 216.904L583.679 210.952H585.103L586.959 216.888L588.847 210.952ZM595.046 219.208C593.905 219.208 592.95 218.808 592.182 218.008C591.425 217.197 591.046 216.184 591.046 214.968C591.046 213.763 591.425 212.76 592.182 211.96C592.95 211.149 593.905 210.744 595.046 210.744C596.305 210.744 597.27 211.219 597.942 212.168V210.952H599.606V219H597.942V217.784C597.27 218.733 596.305 219.208 595.046 219.208ZM595.318 217.704C596.065 217.704 596.694 217.448 597.206 216.936C597.718 216.413 597.974 215.757 597.974 214.968C597.974 214.189 597.718 213.544 597.206 213.032C596.694 212.509 596.065 212.248 595.318 212.248C594.55 212.248 593.921 212.504 593.43 213.016C592.939 213.528 592.694 214.179 592.694 214.968C592.694 215.757 592.939 216.413 593.43 216.936C593.921 217.448 594.55 217.704 595.318 217.704ZM603.519 212.232C603.764 211.731 604.122 211.357 604.591 211.112C605.071 210.856 605.631 210.771 606.271 210.856V212.424C605.386 212.296 604.703 212.472 604.223 212.952C603.754 213.421 603.519 214.227 603.519 215.368V219H601.839V210.952H603.519V212.232ZM611.068 219.208C609.799 219.208 608.764 218.819 607.964 218.04C607.175 217.261 606.78 216.243 606.78 214.984C606.78 213.768 607.164 212.76 607.932 211.96C608.7 211.149 609.698 210.744 610.924 210.744C612.194 210.744 613.191 211.133 613.916 211.912C614.652 212.68 615.02 213.651 615.02 214.824C615.02 215.027 615.004 215.251 614.972 215.496H608.428C608.482 216.179 608.743 216.728 609.212 217.144C609.682 217.56 610.311 217.768 611.1 217.768C612.21 217.768 612.972 217.336 613.388 216.472L614.924 216.92C614.636 217.549 614.162 218.088 613.5 218.536C612.839 218.984 612.028 219.208 611.068 219.208ZM608.428 214.376L613.372 214.36C613.319 213.72 613.074 213.197 612.636 212.792C612.21 212.387 611.639 212.184 610.924 212.184C610.231 212.184 609.655 212.397 609.196 212.824C608.748 213.251 608.492 213.768 608.428 214.376Z" fill="#34314C"/>
<path d="M487.416 275L484.68 270.84H481.848V275H480.12V263.8H485.448C486.568 263.8 487.459 264.157 488.12 264.872C488.792 265.587 489.128 266.408 489.128 267.336C489.128 268.104 488.899 268.803 488.44 269.432C487.981 270.061 487.341 270.483 486.52 270.696L489.416 275H487.416ZM481.848 265.352V269.304H485.352C485.981 269.304 486.488 269.112 486.872 268.728C487.256 268.344 487.448 267.88 487.448 267.336C487.448 266.792 487.256 266.328 486.872 265.944C486.499 265.549 486.008 265.352 485.4 265.352H481.848ZM494.568 275.208C493.299 275.208 492.264 274.819 491.464 274.04C490.675 273.261 490.28 272.243 490.28 270.984C490.28 269.768 490.664 268.76 491.432 267.96C492.2 267.149 493.198 266.744 494.424 266.744C495.694 266.744 496.691 267.133 497.416 267.912C498.152 268.68 498.52 269.651 498.52 270.824C498.52 271.027 498.504 271.251 498.472 271.496H491.928C491.982 272.179 492.243 272.728 492.712 273.144C493.182 273.56 493.811 273.768 494.6 273.768C495.71 273.768 496.472 273.336 496.888 272.472L498.424 272.92C498.136 273.549 497.662 274.088 497 274.536C496.339 274.984 495.528 275.208 494.568 275.208ZM491.928 270.376L496.872 270.36C496.819 269.72 496.574 269.197 496.136 268.792C495.71 268.387 495.139 268.184 494.424 268.184C493.731 268.184 493.155 268.397 492.696 268.824C492.248 269.251 491.992 269.768 491.928 270.376ZM506.597 266.952H508.277V274.712C508.277 275.843 507.898 276.765 507.141 277.48C506.394 278.205 505.413 278.568 504.197 278.568C502.416 278.568 501.136 277.869 500.357 276.472L501.829 275.928C502.32 276.749 503.12 277.16 504.229 277.16C504.976 277.16 505.552 276.931 505.957 276.472C506.373 276.024 506.586 275.443 506.597 274.728V273.544C505.925 274.451 504.981 274.904 503.765 274.904C502.602 274.904 501.642 274.515 500.885 273.736C500.128 272.957 499.749 271.987 499.749 270.824C499.749 269.629 500.122 268.653 500.869 267.896C501.626 267.128 502.592 266.744 503.765 266.744C504.981 266.744 505.925 267.192 506.597 268.088V266.952ZM504.021 273.4C504.768 273.4 505.392 273.155 505.893 272.664C506.394 272.173 506.645 271.56 506.645 270.824C506.645 270.088 506.394 269.48 505.893 269C505.392 268.509 504.768 268.264 504.021 268.264C503.253 268.264 502.624 268.504 502.133 268.984C501.642 269.464 501.397 270.077 501.397 270.824C501.397 271.571 501.642 272.189 502.133 272.68C502.624 273.16 503.253 273.4 504.021 273.4ZM516.415 266.952H518.079V275H516.415V273.784C515.764 274.733 514.836 275.208 513.631 275.208C512.617 275.208 511.828 274.893 511.263 274.264C510.708 273.635 510.431 272.771 510.431 271.672V266.952H512.111V271.368C512.111 272.083 512.276 272.643 512.607 273.048C512.948 273.443 513.444 273.64 514.095 273.64C514.788 273.64 515.348 273.395 515.775 272.904C516.201 272.413 516.415 271.763 516.415 270.952V266.952ZM520.323 275V263.32H522.003V275H520.323ZM527.749 275.208C526.608 275.208 525.653 274.808 524.885 274.008C524.128 273.197 523.749 272.184 523.749 270.968C523.749 269.763 524.128 268.76 524.885 267.96C525.653 267.149 526.608 266.744 527.749 266.744C529.008 266.744 529.973 267.219 530.645 268.168V266.952H532.309V275H530.645V273.784C529.973 274.733 529.008 275.208 527.749 275.208ZM528.021 273.704C528.768 273.704 529.397 273.448 529.909 272.936C530.421 272.413 530.677 271.757 530.677 270.968C530.677 270.189 530.421 269.544 529.909 269.032C529.397 268.509 528.768 268.248 528.021 268.248C527.253 268.248 526.624 268.504 526.133 269.016C525.642 269.528 525.397 270.179 525.397 270.968C525.397 271.757 525.642 272.413 526.133 272.936C526.624 273.448 527.253 273.704 528.021 273.704ZM539.054 273.368L539.47 274.744C538.862 275 538.27 275.128 537.694 275.128C536.851 275.128 536.222 274.888 535.806 274.408C535.39 273.917 535.182 273.245 535.182 272.392V268.44H533.71V266.952H535.182V264.264H536.846V266.952H539.406V268.44H536.846V272.392C536.846 273.213 537.23 273.624 537.998 273.624C538.35 273.624 538.702 273.539 539.054 273.368ZM542.752 265.352C542.549 265.544 542.299 265.64 542 265.64C541.701 265.64 541.451 265.544 541.248 265.352C541.045 265.149 540.944 264.899 540.944 264.6C540.944 264.323 541.045 264.083 541.248 263.88C541.451 263.677 541.701 263.576 542 263.576C542.299 263.576 542.549 263.677 542.752 263.88C542.955 264.083 543.056 264.323 543.056 264.6C543.056 264.899 542.955 265.149 542.752 265.352ZM541.152 275V266.952H542.816V275H541.152ZM551.936 274.008C551.126 274.808 550.107 275.208 548.88 275.208C547.654 275.208 546.635 274.808 545.824 274.008C545.014 273.197 544.608 272.184 544.608 270.968C544.608 269.763 545.014 268.76 545.824 267.96C546.635 267.149 547.654 266.744 548.88 266.744C550.107 266.744 551.126 267.149 551.936 267.96C552.747 268.76 553.152 269.763 553.152 270.968C553.152 272.184 552.747 273.197 551.936 274.008ZM546.976 272.92C547.478 273.432 548.112 273.688 548.88 273.688C549.648 273.688 550.278 273.432 550.768 272.92C551.27 272.397 551.52 271.752 551.52 270.984C551.52 270.205 551.27 269.56 550.768 269.048C550.278 268.525 549.648 268.264 548.88 268.264C548.112 268.264 547.478 268.525 546.976 269.048C546.486 269.56 546.24 270.205 546.24 270.984C546.24 271.752 546.486 272.397 546.976 272.92ZM559.334 266.744C560.358 266.744 561.147 267.059 561.702 267.688C562.256 268.317 562.534 269.181 562.534 270.28V275H560.87V270.584C560.87 269.869 560.699 269.315 560.358 268.92C560.027 268.515 559.536 268.312 558.886 268.312C558.182 268.312 557.616 268.557 557.19 269.048C556.774 269.539 556.566 270.189 556.566 271V275H554.886V266.952H556.566V268.152C557.227 267.213 558.15 266.744 559.334 266.744ZM567.754 275.208C566.837 275.208 566.026 274.973 565.322 274.504C564.629 274.024 564.176 273.443 563.962 272.76L565.482 272.312C565.632 272.749 565.914 273.112 566.33 273.4C566.757 273.688 567.248 273.832 567.802 273.832C568.304 273.832 568.709 273.725 569.018 273.512C569.328 273.299 569.482 273.043 569.482 272.744C569.482 272.499 569.402 272.307 569.242 272.168C569.082 272.019 568.816 271.891 568.442 271.784L566.282 271.144C565.002 270.76 564.362 270.072 564.362 269.08C564.362 268.44 564.661 267.891 565.258 267.432C565.856 266.973 566.581 266.744 567.434 266.744C568.277 266.744 569.008 266.931 569.626 267.304C570.245 267.677 570.677 268.168 570.922 268.776L569.434 269.208C569.274 268.888 569.018 268.621 568.666 268.408C568.314 268.195 567.898 268.088 567.418 268.088C567.013 268.088 566.677 268.189 566.41 268.392C566.144 268.584 566.01 268.808 566.01 269.064C566.01 269.416 566.298 269.683 566.874 269.864L569.018 270.488C569.68 270.68 570.197 270.941 570.57 271.272C570.944 271.592 571.13 272.061 571.13 272.68C571.13 273.405 570.81 274.008 570.17 274.488C569.541 274.968 568.736 275.208 567.754 275.208ZM584.275 275L581.539 270.84H578.707V275H576.979V263.8H582.307C583.427 263.8 584.318 264.157 584.979 264.872C585.651 265.587 585.987 266.408 585.987 267.336C585.987 268.104 585.758 268.803 585.299 269.432C584.841 270.061 584.201 270.483 583.379 270.696L586.275 275H584.275ZM578.707 265.352V269.304H582.211C582.841 269.304 583.347 269.112 583.731 268.728C584.115 268.344 584.307 267.88 584.307 267.336C584.307 266.792 584.115 266.328 583.731 265.944C583.358 265.549 582.867 265.352 582.259 265.352H578.707ZM589.58 265.352C589.378 265.544 589.127 265.64 588.828 265.64C588.53 265.64 588.279 265.544 588.076 265.352C587.874 265.149 587.772 264.899 587.772 264.6C587.772 264.323 587.874 264.083 588.076 263.88C588.279 263.677 588.53 263.576 588.828 263.576C589.127 263.576 589.378 263.677 589.58 263.88C589.783 264.083 589.884 264.323 589.884 264.6C589.884 264.899 589.783 265.149 589.58 265.352ZM587.98 275V266.952H589.644V275H587.98ZM594.989 275.208C594.071 275.208 593.261 274.973 592.557 274.504C591.863 274.024 591.41 273.443 591.197 272.76L592.717 272.312C592.866 272.749 593.149 273.112 593.565 273.4C593.991 273.688 594.482 273.832 595.037 273.832C595.538 273.832 595.943 273.725 596.253 273.512C596.562 273.299 596.717 273.043 596.717 272.744C596.717 272.499 596.637 272.307 596.477 272.168C596.317 272.019 596.05 271.891 595.677 271.784L593.517 271.144C592.237 270.76 591.597 270.072 591.597 269.08C591.597 268.44 591.895 267.891 592.493 267.432C593.09 266.973 593.815 266.744 594.669 266.744C595.511 266.744 596.242 266.931 596.861 267.304C597.479 267.677 597.911 268.168 598.157 268.776L596.669 269.208C596.509 268.888 596.253 268.621 595.901 268.408C595.549 268.195 595.133 268.088 594.653 268.088C594.247 268.088 593.911 268.189 593.645 268.392C593.378 268.584 593.245 268.808 593.245 269.064C593.245 269.416 593.533 269.683 594.109 269.864L596.253 270.488C596.914 270.68 597.431 270.941 597.805 271.272C598.178 271.592 598.365 272.061 598.365 272.68C598.365 273.405 598.045 274.008 597.405 274.488C596.775 274.968 595.97 275.208 594.989 275.208ZM605.639 275L602.919 271.592L601.847 272.744V275H600.167V263.32H601.847V270.616L605.207 266.952H607.191L603.975 270.44L607.559 275H605.639ZM611.66 275.208C610.743 275.208 609.932 274.973 609.228 274.504C608.535 274.024 608.082 273.443 607.868 272.76L609.388 272.312C609.538 272.749 609.82 273.112 610.236 273.4C610.663 273.688 611.154 273.832 611.708 273.832C612.21 273.832 612.615 273.725 612.924 273.512C613.234 273.299 613.388 273.043 613.388 272.744C613.388 272.499 613.308 272.307 613.148 272.168C612.988 272.019 612.722 271.891 612.348 271.784L610.188 271.144C608.908 270.76 608.268 270.072 608.268 269.08C608.268 268.44 608.567 267.891 609.164 267.432C609.762 266.973 610.487 266.744 611.34 266.744C612.183 266.744 612.914 266.931 613.532 267.304C614.151 267.677 614.583 268.168 614.828 268.776L613.34 269.208C613.18 268.888 612.924 268.621 612.572 268.408C612.22 268.195 611.804 268.088 611.324 268.088C610.919 268.088 610.583 268.189 610.316 268.392C610.05 268.584 609.916 268.808 609.916 269.064C609.916 269.416 610.204 269.683 610.78 269.864L612.924 270.488C613.586 270.68 614.103 270.941 614.476 271.272C614.85 271.592 615.036 272.061 615.036 272.68C615.036 273.405 614.716 274.008 614.076 274.488C613.447 274.968 612.642 275.208 611.66 275.208Z" fill="#34314C"/>
<path d="M32.7039 242.8H34.4639V249.472C34.4639 250.901 34.0425 252.048 33.1999 252.912C32.3679 253.776 31.2105 254.208 29.7279 254.208C28.2452 254.208 27.0879 253.781 26.2559 252.928C25.4239 252.064 25.0079 250.912 25.0079 249.472V242.8H26.7519V249.44C26.7519 250.4 27.0079 251.168 27.5199 251.744C28.0319 252.32 28.7679 252.608 29.7279 252.608C30.6879 252.608 31.4239 252.32 31.9359 251.744C32.4479 251.168 32.7039 250.4 32.7039 249.44V242.8ZM41.021 245.744C42.045 245.744 42.8343 246.059 43.389 246.688C43.9437 247.317 44.221 248.181 44.221 249.28V254H42.557V249.584C42.557 248.869 42.3863 248.315 42.045 247.92C41.7143 247.515 41.2237 247.312 40.573 247.312C39.869 247.312 39.3037 247.557 38.877 248.048C38.461 248.539 38.253 249.189 38.253 250V254H36.573V245.952H38.253V247.152C38.9143 246.213 39.837 245.744 41.021 245.744ZM55.8895 245.744C56.8495 245.744 57.6122 246.048 58.1775 246.656C58.7535 247.264 59.0415 248.107 59.0415 249.184V254H57.3615V249.504C57.3615 248.811 57.2068 248.272 56.8975 247.888C56.5988 247.504 56.1508 247.312 55.5535 247.312C54.9348 247.312 54.4442 247.536 54.0815 247.984C53.7188 248.432 53.5375 249.035 53.5375 249.792V254H51.8735V249.504C51.8735 248.811 51.7242 248.272 51.4255 247.888C51.1375 247.504 50.7055 247.312 50.1295 247.312C49.4895 247.312 48.9828 247.547 48.6095 248.016C48.2468 248.485 48.0655 249.125 48.0655 249.936V254H46.3855V245.952H48.0655V247.072C48.6735 246.187 49.5162 245.744 50.5935 245.744C51.7668 245.744 52.5935 246.203 53.0735 247.12C53.6815 246.203 54.6202 245.744 55.8895 245.744ZM64.702 254.208C63.5607 254.208 62.606 253.808 61.838 253.008C61.0807 252.197 60.702 251.184 60.702 249.968C60.702 248.763 61.0807 247.76 61.838 246.96C62.606 246.149 63.5607 245.744 64.702 245.744C65.9607 245.744 66.926 246.219 67.598 247.168V245.952H69.262V254H67.598V252.784C66.926 253.733 65.9607 254.208 64.702 254.208ZM64.974 252.704C65.7207 252.704 66.35 252.448 66.862 251.936C67.374 251.413 67.63 250.757 67.63 249.968C67.63 249.189 67.374 248.544 66.862 248.032C66.35 247.509 65.7207 247.248 64.974 247.248C64.206 247.248 63.5767 247.504 63.086 248.016C62.5953 248.528 62.35 249.179 62.35 249.968C62.35 250.757 62.5953 251.413 63.086 251.936C63.5767 252.448 64.206 252.704 64.974 252.704ZM75.9429 245.744C76.9669 245.744 77.7562 246.059 78.3109 246.688C78.8655 247.317 79.1429 248.181 79.1429 249.28V254H77.4789V249.584C77.4789 248.869 77.3082 248.315 76.9669 247.92C76.6362 247.515 76.1455 247.312 75.4949 247.312C74.7909 247.312 74.2255 247.557 73.7989 248.048C73.3829 248.539 73.1749 249.189 73.1749 250V254H71.4949V245.952H73.1749V247.152C73.8362 246.213 74.7589 245.744 75.9429 245.744ZM84.8114 254.208C83.67 254.208 82.7154 253.808 81.9474 253.008C81.19 252.197 80.8114 251.184 80.8114 249.968C80.8114 248.763 81.19 247.76 81.9474 246.96C82.7154 246.149 83.67 245.744 84.8114 245.744C86.07 245.744 87.0354 246.219 87.7074 247.168V245.952H89.3714V254H87.7074V252.784C87.0354 253.733 86.07 254.208 84.8114 254.208ZM85.0834 252.704C85.83 252.704 86.4594 252.448 86.9714 251.936C87.4834 251.413 87.7394 250.757 87.7394 249.968C87.7394 249.189 87.4834 248.544 86.9714 248.032C86.4594 247.509 85.83 247.248 85.0834 247.248C84.3154 247.248 83.686 247.504 83.1954 248.016C82.7047 248.528 82.4594 249.179 82.4594 249.968C82.4594 250.757 82.7047 251.413 83.1954 251.936C83.686 252.448 84.3154 252.704 85.0834 252.704ZM97.9563 245.952H99.6363V253.712C99.6363 254.843 99.2576 255.765 98.5003 256.48C97.7536 257.205 96.7723 257.568 95.5563 257.568C93.7749 257.568 92.4949 256.869 91.7163 255.472L93.1883 254.928C93.6789 255.749 94.4789 256.16 95.5883 256.16C96.3349 256.16 96.9109 255.931 97.3163 255.472C97.7323 255.024 97.9456 254.443 97.9563 253.728V252.544C97.2843 253.451 96.3403 253.904 95.1243 253.904C93.9616 253.904 93.0016 253.515 92.2443 252.736C91.4869 251.957 91.1083 250.987 91.1083 249.824C91.1083 248.629 91.4816 247.653 92.2283 246.896C92.9856 246.128 93.9509 245.744 95.1243 245.744C96.3403 245.744 97.2843 246.192 97.9563 247.088V245.952ZM95.3803 252.4C96.1269 252.4 96.7509 252.155 97.2523 251.664C97.7536 251.173 98.0043 250.56 98.0043 249.824C98.0043 249.088 97.7536 248.48 97.2523 248C96.7509 247.509 96.1269 247.264 95.3803 247.264C94.6123 247.264 93.9829 247.504 93.4923 247.984C93.0016 248.464 92.7563 249.077 92.7563 249.824C92.7563 250.571 93.0016 251.189 93.4923 251.68C93.9829 252.16 94.6123 252.4 95.3803 252.4ZM105.662 254.208C104.393 254.208 103.358 253.819 102.558 253.04C101.769 252.261 101.374 251.243 101.374 249.984C101.374 248.768 101.758 247.76 102.526 246.96C103.294 246.149 104.291 245.744 105.518 245.744C106.787 245.744 107.785 246.133 108.51 246.912C109.246 247.68 109.614 248.651 109.614 249.824C109.614 250.027 109.598 250.251 109.566 250.496H103.022C103.075 251.179 103.337 251.728 103.806 252.144C104.275 252.56 104.905 252.768 105.694 252.768C106.803 252.768 107.566 252.336 107.982 251.472L109.518 251.92C109.23 252.549 108.755 253.088 108.094 253.536C107.433 253.984 106.622 254.208 105.662 254.208ZM103.022 249.376L107.966 249.36C107.913 248.72 107.667 248.197 107.23 247.792C106.803 247.387 106.233 247.184 105.518 247.184C104.825 247.184 104.249 247.397 103.79 247.824C103.342 248.251 103.086 248.768 103.022 249.376ZM117.739 242.32H119.403V254H117.739V252.784C117.067 253.733 116.101 254.208 114.843 254.208C113.701 254.208 112.747 253.808 111.979 253.008C111.221 252.197 110.843 251.184 110.843 249.968C110.843 248.763 111.221 247.76 111.979 246.96C112.747 246.149 113.701 245.744 114.843 245.744C116.101 245.744 117.067 246.219 117.739 247.168V242.32ZM115.115 252.704C115.861 252.704 116.491 252.448 117.003 251.936C117.515 251.413 117.771 250.757 117.771 249.968C117.771 249.189 117.515 248.544 117.003 248.032C116.491 247.509 115.861 247.248 115.115 247.248C114.347 247.248 113.717 247.504 113.227 248.016C112.736 248.528 112.491 249.179 112.491 249.968C112.491 250.757 112.736 251.413 113.227 251.936C113.717 252.448 114.347 252.704 115.115 252.704ZM125.682 254V242.8H127.442V254H125.682ZM134.13 245.744C135.154 245.744 135.944 246.059 136.498 246.688C137.053 247.317 137.33 248.181 137.33 249.28V254H135.666V249.584C135.666 248.869 135.496 248.315 135.154 247.92C134.824 247.515 134.333 247.312 133.682 247.312C132.978 247.312 132.413 247.557 131.986 248.048C131.57 248.539 131.362 249.189 131.362 250V254H129.682V245.952H131.362V247.152C132.024 246.213 132.946 245.744 134.13 245.744ZM142.023 245.088V245.952H144.679V247.44H142.023V254H140.343V247.44H138.743V245.952H140.343V245.056C140.343 244.128 140.572 243.408 141.031 242.896C141.49 242.373 142.156 242.112 143.031 242.112C143.692 242.112 144.263 242.224 144.743 242.448L144.343 243.808C143.991 243.648 143.623 243.568 143.239 243.568C142.428 243.568 142.023 244.075 142.023 245.088ZM152.218 253.008C151.407 253.808 150.388 254.208 149.162 254.208C147.935 254.208 146.916 253.808 146.106 253.008C145.295 252.197 144.89 251.184 144.89 249.968C144.89 248.763 145.295 247.76 146.106 246.96C146.916 246.149 147.935 245.744 149.162 245.744C150.388 245.744 151.407 246.149 152.218 246.96C153.028 247.76 153.434 248.763 153.434 249.968C153.434 251.184 153.028 252.197 152.218 253.008ZM147.258 251.92C147.759 252.432 148.394 252.688 149.162 252.688C149.93 252.688 150.559 252.432 151.05 251.92C151.551 251.397 151.802 250.752 151.802 249.984C151.802 249.205 151.551 248.56 151.05 248.048C150.559 247.525 149.93 247.264 149.162 247.264C148.394 247.264 147.759 247.525 147.258 248.048C146.767 248.56 146.522 249.205 146.522 249.984C146.522 250.752 146.767 251.397 147.258 251.92ZM156.847 247.232C157.092 246.731 157.449 246.357 157.919 246.112C158.399 245.856 158.959 245.771 159.599 245.856V247.424C158.713 247.296 158.031 247.472 157.551 247.952C157.081 248.421 156.847 249.227 156.847 250.368V254H155.167V245.952H156.847V247.232ZM170.593 245.744C171.553 245.744 172.315 246.048 172.881 246.656C173.457 247.264 173.745 248.107 173.745 249.184V254H172.065V249.504C172.065 248.811 171.91 248.272 171.601 247.888C171.302 247.504 170.854 247.312 170.257 247.312C169.638 247.312 169.147 247.536 168.785 247.984C168.422 248.432 168.241 249.035 168.241 249.792V254H166.577V249.504C166.577 248.811 166.427 248.272 166.129 247.888C165.841 247.504 165.409 247.312 164.833 247.312C164.193 247.312 163.686 247.547 163.313 248.016C162.95 248.485 162.769 249.125 162.769 249.936V254H161.089V245.952H162.769V247.072C163.377 246.187 164.219 245.744 165.297 245.744C166.47 245.744 167.297 246.203 167.777 247.12C168.385 246.203 169.323 245.744 170.593 245.744ZM179.405 254.208C178.264 254.208 177.309 253.808 176.541 253.008C175.784 252.197 175.405 251.184 175.405 249.968C175.405 248.763 175.784 247.76 176.541 246.96C177.309 246.149 178.264 245.744 179.405 245.744C180.664 245.744 181.629 246.219 182.301 247.168V245.952H183.965V254H182.301V252.784C181.629 253.733 180.664 254.208 179.405 254.208ZM179.677 252.704C180.424 252.704 181.053 252.448 181.565 251.936C182.077 251.413 182.333 250.757 182.333 249.968C182.333 249.189 182.077 248.544 181.565 248.032C181.053 247.509 180.424 247.248 179.677 247.248C178.909 247.248 178.28 247.504 177.789 248.016C177.298 248.528 177.053 249.179 177.053 249.968C177.053 250.757 177.298 251.413 177.789 251.936C178.28 252.448 178.909 252.704 179.677 252.704ZM190.71 252.368L191.126 253.744C190.518 254 189.926 254.128 189.35 254.128C188.507 254.128 187.878 253.888 187.462 253.408C187.046 252.917 186.838 252.245 186.838 251.392V247.44H185.366V245.952H186.838V243.264H188.502V245.952H191.062V247.44H188.502V251.392C188.502 252.213 188.886 252.624 189.654 252.624C190.006 252.624 190.358 252.539 190.71 252.368ZM194.408 244.352C194.205 244.544 193.955 244.64 193.656 244.64C193.357 244.64 193.107 244.544 192.904 244.352C192.701 244.149 192.6 243.899 192.6 243.6C192.6 243.323 192.701 243.083 192.904 242.88C193.107 242.677 193.357 242.576 193.656 242.576C193.955 242.576 194.205 242.677 194.408 242.88C194.611 243.083 194.712 243.323 194.712 243.6C194.712 243.899 194.611 244.149 194.408 244.352ZM192.808 254V245.952H194.472V254H192.808ZM203.593 253.008C202.782 253.808 201.763 254.208 200.537 254.208C199.31 254.208 198.291 253.808 197.481 253.008C196.67 252.197 196.265 251.184 196.265 249.968C196.265 248.763 196.67 247.76 197.481 246.96C198.291 246.149 199.31 245.744 200.537 245.744C201.763 245.744 202.782 246.149 203.593 246.96C204.403 247.76 204.809 248.763 204.809 249.968C204.809 251.184 204.403 252.197 203.593 253.008ZM198.633 251.92C199.134 252.432 199.769 252.688 200.537 252.688C201.305 252.688 201.934 252.432 202.425 251.92C202.926 251.397 203.177 250.752 203.177 249.984C203.177 249.205 202.926 248.56 202.425 248.048C201.934 247.525 201.305 247.264 200.537 247.264C199.769 247.264 199.134 247.525 198.633 248.048C198.142 248.56 197.897 249.205 197.897 249.984C197.897 250.752 198.142 251.397 198.633 251.92ZM210.99 245.744C212.014 245.744 212.803 246.059 213.358 246.688C213.912 247.317 214.19 248.181 214.19 249.28V254H212.526V249.584C212.526 248.869 212.355 248.315 212.014 247.92C211.683 247.515 211.192 247.312 210.542 247.312C209.838 247.312 209.272 247.557 208.846 248.048C208.43 248.539 208.222 249.189 208.222 250V254H206.542V245.952H208.222V247.152C208.883 246.213 209.806 245.744 210.99 245.744Z" fill="#34314C"/>
</svg>
