<svg width="280" height="280" viewBox="0 0 280 280" fill="none" xmlns="http://www.w3.org/2000/svg">
<circle cx="140" cy="140" r="114.5" stroke="#EAEAEA" stroke-width="11" stroke-linejoin="round"/>
<circle cx="140" cy="140" r="133.5" stroke="#EAEAEA" stroke-width="11" stroke-linejoin="round"/>
<path d="M140 6C214.006 6 274 65.9938 274 140C274 214.006 214.006 274 140 274C65.9937 274 5.99988 214.006 5.99988 140C5.99988 93.0342 30.1619 51.7118 66.7337 27.7851" stroke="#34314C" stroke-width="11" stroke-linecap="round" stroke-linejoin="round"/>
<circle cx="140.5" cy="139.5" r="96" stroke="#EAEAEA" stroke-width="11" stroke-linejoin="round"/>
<circle cx="140.5" cy="139.5" r="77" stroke="#EAEAEA" stroke-width="11" stroke-linejoin="round"/>
<path d="M140 25C203.513 25 255 76.4873 255 140C255 203.513 203.513 255 140 255C76.4871 255 24.9999 203.513 24.9999 140C24.9999 117.451 31.4896 96.4181 42.7031 78.6667" stroke="#735290" stroke-width="11" stroke-linecap="round" stroke-linejoin="round"/>
<path d="M43.9999 139.5C43.9999 192.795 87.2044 236 140.5 236C193.795 236 237 192.795 237 139.5C237 86.2045 193.795 43 140.5 43" stroke="#FF6969" stroke-width="11" stroke-linecap="round" stroke-linejoin="round"/>
<path d="M140.961 62C184.061 62 219 96.6979 219 139.5C219 182.302 184.061 217 140.961 217C119.012 217 99.1793 208.001 84.9999 193.515" stroke="#FFC300" stroke-width="11" stroke-linecap="round" stroke-linejoin="round"/>
<path d="M102.64 116H122.76V119.8L112.16 144H106.32L116.48 120.96H102.64V116ZM141.295 128.76C144.521 130.2 146.135 132.587 146.135 135.92C146.135 138.373 145.135 140.427 143.135 142.08C141.135 143.733 138.521 144.56 135.295 144.56C132.068 144.56 129.455 143.747 127.455 142.12C125.455 140.467 124.455 138.4 124.455 135.92C124.455 132.56 126.068 130.173 129.295 128.76C126.868 127.533 125.655 125.587 125.655 122.92C125.655 120.813 126.535 119.04 128.295 117.6C130.055 116.16 132.388 115.44 135.295 115.44C138.175 115.44 140.495 116.16 142.255 117.6C144.041 119.04 144.935 120.813 144.935 122.92C144.935 125.587 143.721 127.533 141.295 128.76ZM135.295 119.8C133.961 119.8 132.908 120.147 132.135 120.84C131.361 121.533 130.975 122.387 130.975 123.4C130.975 124.413 131.361 125.267 132.135 125.96C132.908 126.653 133.961 127 135.295 127C136.601 127 137.641 126.653 138.415 125.96C139.215 125.267 139.615 124.413 139.615 123.4C139.615 122.387 139.215 121.533 138.415 120.84C137.641 120.147 136.601 119.8 135.295 119.8ZM131.415 138.68C132.375 139.507 133.668 139.92 135.295 139.92C136.921 139.92 138.215 139.507 139.175 138.68C140.135 137.827 140.615 136.76 140.615 135.48C140.615 134.2 140.135 133.147 139.175 132.32C138.215 131.467 136.921 131.04 135.295 131.04C133.641 131.04 132.335 131.453 131.375 132.28C130.441 133.107 129.975 134.173 129.975 135.48C129.975 136.76 130.455 137.827 131.415 138.68ZM152.627 144.32C151.693 144.32 150.907 144 150.267 143.36C149.653 142.72 149.347 141.947 149.347 141.04C149.347 140.187 149.667 139.453 150.307 138.84C150.947 138.227 151.72 137.92 152.627 137.92C153.533 137.92 154.293 138.227 154.907 138.84C155.547 139.453 155.867 140.187 155.867 141.04C155.867 141.947 155.547 142.72 154.907 143.36C154.293 144 153.533 144.32 152.627 144.32ZM157.718 116H177.838V119.8L167.238 144H161.398L171.558 120.96H157.718V116Z" fill="#34314C"/>
<path d="M108.672 172L105.744 167.6H102.464V172H101.2V160.8H106.384C107.472 160.8 108.336 161.147 108.976 161.84C109.616 162.533 109.936 163.323 109.936 164.208C109.936 164.997 109.685 165.712 109.184 166.352C108.693 166.981 108.011 167.376 107.136 167.536L110.144 172H108.672ZM102.464 161.952V166.464H106.336C107.051 166.464 107.621 166.245 108.048 165.808C108.485 165.36 108.704 164.827 108.704 164.208C108.704 163.6 108.485 163.072 108.048 162.624C107.621 162.176 107.056 161.952 106.352 161.952H102.464ZM113.292 162.288C113.132 162.448 112.93 162.528 112.684 162.528C112.439 162.528 112.236 162.448 112.076 162.288C111.916 162.128 111.836 161.925 111.836 161.68C111.836 161.456 111.916 161.264 112.076 161.104C112.247 160.944 112.45 160.864 112.684 160.864C112.919 160.864 113.116 160.944 113.276 161.104C113.447 161.264 113.532 161.456 113.532 161.68C113.532 161.925 113.452 162.128 113.292 162.288ZM112.076 172V164.016H113.308V172H112.076ZM118.706 172.208C117.821 172.208 117.037 171.979 116.354 171.52C115.682 171.051 115.245 170.475 115.042 169.792L116.194 169.472C116.343 169.952 116.647 170.352 117.106 170.672C117.575 170.981 118.119 171.136 118.738 171.136C119.325 171.136 119.805 171.008 120.178 170.752C120.551 170.496 120.738 170.187 120.738 169.824C120.738 169.515 120.647 169.28 120.466 169.12C120.285 168.949 119.986 168.8 119.57 168.672L117.298 168C116.061 167.637 115.442 166.992 115.442 166.064C115.442 165.456 115.725 164.933 116.29 164.496C116.855 164.048 117.549 163.824 118.37 163.824C119.191 163.824 119.895 164.011 120.482 164.384C121.079 164.757 121.501 165.232 121.746 165.808L120.626 166.144C120.477 165.781 120.199 165.477 119.794 165.232C119.389 164.987 118.909 164.864 118.354 164.864C117.853 164.864 117.442 164.987 117.122 165.232C116.813 165.477 116.658 165.749 116.658 166.048C116.658 166.475 117.015 166.795 117.73 167.008L120.002 167.68C120.61 167.861 121.085 168.112 121.426 168.432C121.778 168.741 121.954 169.184 121.954 169.76C121.954 170.464 121.645 171.051 121.026 171.52C120.418 171.979 119.645 172.208 118.706 172.208ZM129.454 172L126.382 168.32L125.166 169.584V172H123.934V160.32H125.166V168L128.974 164.016H130.494L127.182 167.488L130.91 172H129.454ZM140.801 172.208C139.585 172.208 138.534 171.883 137.649 171.232C136.763 170.581 136.166 169.787 135.857 168.848L137.073 168.48C137.329 169.227 137.793 169.845 138.465 170.336C139.147 170.816 139.947 171.056 140.865 171.056C141.729 171.056 142.433 170.848 142.977 170.432C143.521 170.005 143.793 169.515 143.793 168.96C143.793 168.523 143.638 168.16 143.329 167.872C143.019 167.573 142.491 167.307 141.745 167.072L138.945 166.176C137.291 165.643 136.465 164.768 136.465 163.552C136.465 162.741 136.822 162.048 137.537 161.472C138.251 160.885 139.142 160.592 140.209 160.592C141.318 160.592 142.267 160.848 143.057 161.36C143.857 161.872 144.427 162.523 144.769 163.312L143.585 163.68C143.307 163.083 142.875 162.613 142.289 162.272C141.702 161.92 141.003 161.744 140.193 161.744C139.478 161.744 138.891 161.92 138.433 162.272C137.974 162.624 137.745 163.04 137.745 163.52C137.745 163.893 137.878 164.203 138.145 164.448C138.411 164.693 138.859 164.917 139.489 165.12L142.209 165.984C143.169 166.293 143.883 166.661 144.353 167.088C144.822 167.515 145.057 168.117 145.057 168.896C145.057 169.813 144.657 170.597 143.857 171.248C143.057 171.888 142.038 172.208 140.801 172.208ZM150.723 172.208C149.528 172.208 148.536 171.808 147.747 171.008C146.958 170.197 146.563 169.189 146.563 167.984C146.563 166.8 146.958 165.813 147.747 165.024C148.536 164.224 149.528 163.824 150.723 163.824C151.672 163.824 152.478 164.075 153.139 164.576C153.811 165.067 154.238 165.621 154.419 166.24L153.267 166.576C153.128 166.139 152.824 165.755 152.355 165.424C151.886 165.093 151.342 164.928 150.723 164.928C149.848 164.928 149.139 165.232 148.595 165.84C148.051 166.437 147.779 167.163 147.779 168.016C147.779 168.859 148.051 169.584 148.595 170.192C149.15 170.789 149.859 171.088 150.723 171.088C151.352 171.088 151.896 170.933 152.355 170.624C152.824 170.304 153.128 169.925 153.267 169.488L154.419 169.792C154.238 170.421 153.816 170.981 153.155 171.472C152.494 171.963 151.683 172.208 150.723 172.208ZM163.029 171.008C162.229 171.808 161.227 172.208 160.021 172.208C158.816 172.208 157.808 171.808 156.997 171.008C156.197 170.197 155.797 169.195 155.797 168C155.797 166.805 156.197 165.813 156.997 165.024C157.808 164.224 158.816 163.824 160.021 163.824C161.227 163.824 162.229 164.224 163.029 165.024C163.829 165.813 164.229 166.805 164.229 168C164.229 169.195 163.829 170.197 163.029 171.008ZM160.021 171.072C160.875 171.072 161.584 170.784 162.149 170.208C162.725 169.621 163.013 168.891 163.013 168.016C163.013 167.141 162.725 166.411 162.149 165.824C161.584 165.237 160.875 164.944 160.021 164.944C159.157 164.944 158.437 165.237 157.861 165.824C157.285 166.411 156.997 167.141 156.997 168.016C156.997 168.891 157.285 169.621 157.861 170.208C158.437 170.784 159.157 171.072 160.021 171.072ZM167.354 165.392C167.599 164.848 167.967 164.443 168.458 164.176C168.948 163.909 169.535 163.824 170.218 163.92V165.072C169.322 164.955 168.618 165.157 168.106 165.68C167.604 166.192 167.354 167.056 167.354 168.272V172H166.122V164.016H167.354V165.392ZM174.943 172.208C173.705 172.208 172.692 171.824 171.903 171.056C171.124 170.288 170.735 169.269 170.735 168C170.735 166.805 171.113 165.813 171.871 165.024C172.628 164.224 173.604 163.824 174.799 163.824C176.036 163.824 177.012 164.203 177.727 164.96C178.441 165.717 178.799 166.672 178.799 167.824C178.799 168.069 178.788 168.261 178.767 168.4H171.951C172.004 169.211 172.297 169.867 172.831 170.368C173.364 170.869 174.068 171.12 174.943 171.12C175.593 171.12 176.143 170.976 176.591 170.688C177.039 170.389 177.369 170.016 177.583 169.568L178.719 169.904C178.42 170.555 177.951 171.104 177.311 171.552C176.671 171.989 175.881 172.208 174.943 172.208ZM171.951 167.488L177.583 167.472C177.529 166.704 177.257 166.085 176.767 165.616C176.276 165.147 175.62 164.912 174.799 164.912C174.009 164.912 173.348 165.163 172.815 165.664C172.292 166.165 172.004 166.773 171.951 167.488Z" fill="#34314C"/>
</svg>
