<svg width="317" height="189" viewBox="0 0 317 189" fill="none" xmlns="http://www.w3.org/2000/svg">
<path d="M69.4746 150.61H263.558" stroke="#4D4962" stroke-width="2" stroke-dasharray="4 4"/>
<mask id="path-2-inside-1_1513:5243" fill="white">
<path d="M134.507 130.298H96.9391C94.852 130.298 93.1128 128.559 93.1128 126.472V38.9884C93.1128 36.9013 94.852 35.1621 96.9391 35.1621H224.599C226.686 35.1621 228.425 36.9013 228.425 38.9884V126.472C228.425 128.559 226.686 130.298 224.599 130.298H187.031"/>
</mask>
<path d="M134.507 130.298H96.9391C94.852 130.298 93.1128 128.559 93.1128 126.472V38.9884C93.1128 36.9013 94.852 35.1621 96.9391 35.1621H224.599C226.686 35.1621 228.425 36.9013 228.425 38.9884V126.472C228.425 128.559 226.686 130.298 224.599 130.298H187.031" fill="#FFF8D1"/>
<path d="M134.507 128.298H96.9391V132.298H134.507V128.298ZM96.9391 128.298C95.9566 128.298 95.1128 127.454 95.1128 126.472H91.1128C91.1128 129.663 93.7474 132.298 96.9391 132.298V128.298ZM95.1128 126.472V38.9884H91.1128V126.472H95.1128ZM95.1128 38.9884C95.1128 38.0059 95.9566 37.1621 96.9391 37.1621V33.1621C93.7474 33.1621 91.1128 35.7968 91.1128 38.9884H95.1128ZM96.9391 37.1621H224.599V33.1621H96.9391V37.1621ZM224.599 37.1621C225.581 37.1621 226.425 38.0059 226.425 38.9884H230.425C230.425 35.7967 227.79 33.1621 224.599 33.1621V37.1621ZM226.425 38.9884V126.472H230.425V38.9884H226.425ZM226.425 126.472C226.425 127.454 225.581 128.298 224.599 128.298V132.298C227.79 132.298 230.425 129.664 230.425 126.472H226.425ZM224.599 128.298H187.031V132.298H224.599V128.298Z" fill="#4D4962" mask="url(#path-2-inside-1_1513:5243)"/>
<path d="M103.025 41.4229C100.764 41.4229 99.0249 43.1621 99.0249 45.4231C99.0249 47.6841 100.764 49.4233 103.025 49.4233C105.112 49.4233 107.025 47.6841 107.025 45.4231C107.025 43.1621 105.286 41.4229 103.025 41.4229Z" fill="#00B746"/>
<path d="M103.026 50.4674C100.243 50.4674 97.9819 48.2064 97.9819 45.4236C97.9819 42.6409 100.243 40.3799 103.026 40.3799C105.808 40.3799 108.07 42.6409 108.07 45.4236C108.243 48.0325 105.982 50.4674 103.026 50.4674ZM103.026 42.467C101.46 42.467 100.243 43.6844 100.243 45.2497C100.243 46.815 101.46 48.0325 103.026 48.0325C104.591 48.0325 105.808 46.815 105.808 45.2497C105.982 43.6844 104.591 42.467 103.026 42.467Z" fill="#4D4962"/>
<path d="M118.158 41.4229C116.071 41.4229 114.157 43.1621 114.157 45.4231C114.157 47.6841 115.897 49.4233 118.158 49.4233C120.419 49.4233 122.158 47.6841 122.158 45.4231C122.158 43.1621 120.419 41.4229 118.158 41.4229Z" fill="#FFC300"/>
<path d="M118.157 50.4674C115.375 50.4674 113.114 48.2064 113.114 45.4236C113.114 42.6409 115.375 40.3799 118.157 40.3799C120.94 40.3799 123.201 42.6409 123.201 45.4236C123.201 48.0325 120.94 50.4674 118.157 50.4674ZM118.157 42.467C116.592 42.467 115.375 43.6844 115.375 45.2497C115.375 46.815 116.592 48.0325 118.157 48.0325C119.723 48.0325 120.94 46.815 120.94 45.2497C120.94 43.6844 119.723 42.467 118.157 42.467Z" fill="#4D4962"/>
<path d="M133.288 41.4229C131.027 41.4229 129.287 43.1621 129.287 45.4231C129.287 47.6841 131.027 49.4233 133.288 49.4233C135.375 49.4233 137.288 47.6841 137.288 45.4231C137.114 43.1621 135.375 41.4229 133.288 41.4229Z" fill="#FFC300"/>
<path d="M133.288 50.4674C130.505 50.4674 128.244 48.2064 128.244 45.4236C128.244 42.6409 130.505 40.3799 133.288 40.3799C136.071 40.3799 138.332 42.6409 138.332 45.4236C138.332 48.0325 136.071 50.4674 133.288 50.4674ZM133.288 42.467C131.723 42.467 130.505 43.6844 130.505 45.2497C130.505 46.815 131.723 48.0325 133.288 48.0325C134.853 48.0325 136.071 46.815 136.071 45.2497C136.071 43.6844 134.679 42.467 133.288 42.467Z" fill="#4D4962"/>
<path d="M141.462 111.993H180.421C183.519 111.993 186.217 114.678 186.378 117.628V143.343C186.378 152.524 178.832 159.909 169.812 159.909H152.941C143.406 159.909 135.679 152.182 135.679 142.647V117.776C135.679 114.659 138.205 111.993 141.462 111.993Z" fill="#FFC300" stroke="#4D4962" stroke-width="2"/>
<path d="M178.03 111.977V111.993H143.724C143.622 111.993 143.551 111.957 143.514 111.924C143.511 111.921 143.509 111.919 143.507 111.917V100.113C143.507 93.5463 148.973 88.0635 155.551 88.0635H165.986C172.729 88.0635 178.03 93.5376 178.03 100.113V111.977Z" stroke="#4D4962" stroke-width="2"/>
<path d="M162.682 144.735H159.203C158.508 144.735 157.986 144.213 157.986 143.691V138.648C156.073 137.604 155.029 135.691 155.029 133.43C155.029 130.125 157.638 127.517 160.943 127.517C164.247 127.517 166.856 130.125 166.856 133.43C166.856 135.691 165.639 137.604 163.899 138.648V143.691C163.725 144.213 163.204 144.735 162.682 144.735ZM160.247 142.474H161.464V137.778C161.464 137.256 161.812 136.908 162.16 136.735C163.551 136.213 164.421 134.821 164.421 133.43C164.421 131.343 162.856 129.778 160.769 129.778C158.682 129.778 157.116 131.343 157.116 133.43C157.116 134.995 157.986 136.213 159.377 136.735C159.899 136.908 160.073 137.256 160.073 137.778V142.474H160.247Z" fill="#4D4962"/>
<path d="M94.8938 54.583H226.226" stroke="#4D4962" stroke-width="2"/>
<path d="M263.557 97.2554L276.949 83.8633L312.778 119.691C316.43 123.344 316.43 129.431 312.778 133.084C309.125 136.736 303.038 136.736 299.386 133.084L263.557 97.2554Z" fill="#707384"/>
<path d="M305.994 137.084C303.212 137.084 300.429 136.04 298.516 133.953L262.687 98.1252C262.514 97.9513 262.34 97.6034 262.34 97.2556C262.34 96.9077 262.514 96.7338 262.687 96.386L276.08 82.9939C276.601 82.4721 277.297 82.4721 277.645 82.9939L313.473 118.822C315.56 120.909 316.604 123.518 316.604 126.301C316.604 129.084 315.56 131.866 313.473 133.779C313.473 133.779 313.473 133.779 313.299 133.779C311.56 136.04 308.777 137.084 305.994 137.084ZM265.122 97.2556L300.081 132.214C301.646 133.779 303.733 134.649 305.994 134.649C308.255 134.649 310.342 133.779 311.908 132.214C311.908 132.214 311.908 132.214 312.082 132.214C313.647 130.649 314.517 128.562 314.517 126.301C314.517 124.04 313.647 121.953 312.082 120.387L277.123 85.4288L265.122 97.2556Z" fill="#4D4962"/>
<path d="M258.165 70.2959L274.34 86.4708L266.34 94.4712L250.165 78.2964C251.73 77.0789 253.121 75.8614 254.513 74.47C255.73 73.2526 256.948 71.8612 258.165 70.2959Z" fill="#FACA44"/>
<path d="M266.166 95.6894C265.818 95.6894 265.644 95.5154 265.296 95.3415L249.121 79.1667C248.948 78.9927 248.774 78.6449 248.774 78.297C248.774 77.9492 248.948 77.6013 249.295 77.4274C250.687 76.3839 252.078 74.9925 253.47 73.775C254.861 72.3836 256.078 70.9923 257.122 69.6009C257.296 69.427 257.644 69.253 257.992 69.0791C258.339 69.0791 258.687 69.253 258.861 69.4269L275.036 85.6018C275.558 86.1236 275.558 86.8193 275.036 87.1671L267.036 95.1676C266.862 95.6894 266.514 95.6894 266.166 95.6894ZM251.73 78.4709L266.166 92.9066L272.601 86.4714L258.166 72.0358C257.296 73.2533 256.252 74.2968 255.035 75.5143C253.991 76.5578 252.948 77.6013 251.73 78.4709Z" fill="#4D4962"/>
<path d="M266.036 43.8597C266.036 67.3212 247.017 86.3406 223.555 86.3406C200.094 86.3406 181.074 67.3212 181.074 43.8597C181.074 20.3982 200.094 1.37891 223.555 1.37891C247.017 1.37891 266.036 20.3982 266.036 43.8597Z" fill="#FFF8D1" stroke="#4D4962" stroke-width="2"/>
<path d="M201.131 21.4321C213.61 8.95232 233.674 8.95232 246.154 21.4321C258.634 33.9119 258.634 53.9756 246.154 66.4554C233.674 78.9352 213.61 78.9352 201.131 66.4554C188.651 53.9756 188.651 33.9119 201.131 21.4321Z" fill="#2196F3" stroke="#4D4962" stroke-width="2"/>
<path d="M300.603 121.081C302.342 119.342 305.125 119.342 306.69 121.081C308.429 122.82 308.429 125.603 306.69 127.168C304.951 128.907 302.342 128.907 300.603 127.168C299.038 125.429 299.038 122.646 300.603 121.081Z" fill="#FFF8D1"/>
<path d="M303.734 129.604C302.343 129.604 300.951 129.082 299.908 128.038C298.864 126.995 298.342 125.603 298.342 124.212C298.342 122.821 298.864 121.429 299.908 120.386C301.995 118.299 305.647 118.299 307.56 120.386C308.604 121.429 309.125 122.821 309.125 124.212C309.125 125.603 308.604 126.995 307.56 128.038C306.517 128.908 305.125 129.604 303.734 129.604ZM303.734 120.907C302.864 120.907 301.995 121.255 301.473 121.777C300.951 122.299 300.603 123.168 300.603 124.038C300.603 124.908 300.951 125.777 301.473 126.299C302.69 127.516 304.777 127.516 305.995 126.299C306.517 125.777 306.865 124.908 306.865 124.038C306.865 123.168 306.517 122.299 305.995 121.777C305.473 121.255 304.604 120.907 303.734 120.907Z" fill="#4D4962"/>
<path d="M51.41 112.482V111.482H50.41H2.39624H1.39624V112.482V127.593V128.593H2.39624H50.41H51.41V127.593V112.482Z" fill="#FFF8D1" stroke="#4D4962" stroke-width="2"/>
<path d="M51.41 141.996V140.996H50.41H2.39624H1.39624V141.996V157.106V158.106H2.39624H50.41H51.41V157.106V141.996Z" fill="#4CAF50" stroke="#4D4962" stroke-width="2"/>
<path d="M51.41 171.512V170.512H50.41H2.39624H1.39624V171.512V186.622V187.622H2.39624H50.41H51.41V186.622V171.512Z" fill="#2196F3" stroke="#4D4962" stroke-width="2"/>
<path d="M87.2733 81.0473L86.4334 81.5901L87.2733 81.0473C86.9049 80.4772 86.2724 80.1328 85.5935 80.1328H77.8176C76.7131 80.1328 75.8176 81.0282 75.8176 82.1328V85.0664V88.7086V90.0396C75.8176 91.1442 76.7131 92.0396 77.8176 92.0396L102.817 92.0396L109.534 109.749C110.322 111.826 113.404 111.262 113.404 109.039V86.0664C113.404 84.9618 112.509 84.0664 111.404 84.0664H89.2243L87.2733 81.0473Z" fill="#2196F3" stroke="#4D4962" stroke-width="2"/>
<path d="M70.1122 92.7125C69.8131 92.0506 70.2972 91.3008 71.0235 91.3008H104.416C104.808 91.3008 105.165 91.5309 105.327 91.8891L113.32 109.581C113.619 110.243 113.135 110.993 112.409 110.993H79.0166C78.6236 110.993 78.2671 110.763 78.1053 110.405L70.1122 92.7125Z" fill="#73C6F4" stroke="#4D4962" stroke-width="2"/>
<path d="M13.4111 123.639C11.4341 123.639 9.7395 121.945 9.7395 119.968C9.7395 117.99 11.4341 116.296 13.4111 116.296C15.3882 116.296 17.0828 117.99 17.0828 119.968C17.0828 121.945 15.5294 123.639 13.4111 123.639ZM13.4111 118.132C12.4226 118.132 11.5753 118.979 11.5753 119.968C11.5753 120.956 12.4226 121.803 13.4111 121.803C14.3997 121.803 15.247 120.956 15.247 119.968C15.247 118.979 14.3997 118.132 13.4111 118.132Z" fill="#4D4962"/>
<path d="M26.5442 123.639C24.5672 123.639 22.8726 121.945 22.8726 119.968C22.8726 117.99 24.5672 116.296 26.5442 116.296C28.5212 116.296 30.2158 117.99 30.2158 119.968C30.0746 121.945 28.5212 123.639 26.5442 123.639ZM26.5442 118.132C25.5557 118.132 24.7084 118.979 24.7084 119.968C24.7084 120.956 25.5557 121.803 26.5442 121.803C27.5327 121.803 28.38 120.956 28.38 119.968C28.2388 118.979 27.5327 118.132 26.5442 118.132Z" fill="#4D4962"/>
<path d="M39.5366 123.639C37.5596 123.639 35.865 121.945 35.865 119.968C35.865 117.99 37.5596 116.296 39.5366 116.296C41.5137 116.296 43.2083 117.99 43.2083 119.968C43.0671 121.945 41.5137 123.639 39.5366 123.639ZM39.5366 118.132C38.5481 118.132 37.7008 118.979 37.7008 119.968C37.7008 120.956 38.5481 121.803 39.5366 121.803C40.5252 121.803 41.3725 120.956 41.3725 119.968C41.2312 118.979 40.5252 118.132 39.5366 118.132Z" fill="#4D4962"/>
<path d="M13.4111 153.153C11.4341 153.153 9.7395 151.458 9.7395 149.481C9.7395 147.504 11.4341 145.81 13.4111 145.81C15.3882 145.81 17.0828 147.504 17.0828 149.481C17.0828 151.458 15.5294 153.153 13.4111 153.153ZM13.4111 147.645C12.4226 147.645 11.5753 148.493 11.5753 149.481C11.5753 150.47 12.4226 151.317 13.4111 151.317C14.3997 151.317 15.247 150.47 15.247 149.481C15.247 148.493 14.3997 147.645 13.4111 147.645Z" fill="#4D4962"/>
<path d="M26.5442 153.153C24.5672 153.153 22.8726 151.458 22.8726 149.481C22.8726 147.504 24.5672 145.81 26.5442 145.81C28.5212 145.81 30.2158 147.504 30.2158 149.481C30.0746 151.458 28.5212 153.153 26.5442 153.153ZM26.5442 147.645C25.5557 147.645 24.7084 148.493 24.7084 149.481C24.7084 150.47 25.5557 151.317 26.5442 151.317C27.5327 151.317 28.38 150.47 28.38 149.481C28.2388 148.493 27.5327 147.645 26.5442 147.645Z" fill="#4D4962"/>
<path d="M39.5366 153.153C37.5596 153.153 35.865 151.458 35.865 149.481C35.865 147.504 37.5596 145.81 39.5366 145.81C41.5137 145.81 43.2083 147.504 43.2083 149.481C43.0671 151.458 41.5137 153.153 39.5366 153.153ZM39.5366 147.645C38.5481 147.645 37.7008 148.493 37.7008 149.481C37.7008 150.47 38.5481 151.317 39.5366 151.317C40.5252 151.317 41.3725 150.47 41.3725 149.481C41.2312 148.493 40.5252 147.645 39.5366 147.645Z" fill="#4D4962"/>
<path d="M13.4111 182.668C11.4341 182.668 9.7395 180.974 9.7395 178.997C9.7395 177.02 11.4341 175.325 13.4111 175.325C15.3882 175.325 17.0828 177.02 17.0828 178.997C17.0828 180.974 15.5294 182.668 13.4111 182.668ZM13.4111 177.161C12.4226 177.161 11.5753 178.008 11.5753 178.997C11.5753 179.985 12.4226 180.833 13.4111 180.833C14.3997 180.833 15.247 179.985 15.247 178.997C15.247 178.008 14.3997 177.161 13.4111 177.161Z" fill="#4D4962"/>
<path d="M26.5442 182.668C24.5672 182.668 22.8726 180.974 22.8726 178.997C22.8726 177.02 24.5672 175.325 26.5442 175.325C28.5212 175.325 30.2158 177.02 30.2158 178.997C30.0746 180.974 28.5212 182.668 26.5442 182.668ZM26.5442 177.161C25.5557 177.161 24.7084 178.008 24.7084 178.997C24.7084 179.985 25.5557 180.833 26.5442 180.833C27.5327 180.833 28.38 179.985 28.38 178.997C28.2388 178.008 27.5327 177.161 26.5442 177.161Z" fill="#4D4962"/>
<path d="M39.5366 182.668C37.5596 182.668 35.865 180.974 35.865 178.997C35.865 177.02 37.5596 175.325 39.5366 175.325C41.5137 175.325 43.2083 177.02 43.2083 178.997C43.0671 180.974 41.5137 182.668 39.5366 182.668ZM39.5366 177.161C38.5481 177.161 37.7008 178.008 37.7008 178.997C37.7008 179.985 38.5481 180.833 39.5366 180.833C40.5252 180.833 41.3725 179.985 41.3725 178.997C41.2312 178.008 40.5252 177.161 39.5366 177.161Z" fill="#4D4962"/>
<path d="M52.5286 120.249H59.8259C62.0351 120.249 63.8259 122.04 63.8259 124.249V176.266C63.8259 178.475 62.0351 180.266 59.8259 180.266H52.5286" stroke="#4D4962" stroke-width="2" stroke-dasharray="4 4"/>
<path d="M197.981 43.2877C203.387 50.0359 212.737 54.5837 223.401 54.5837C234.066 54.5837 243.416 50.0359 248.821 43.2877C243.416 36.3927 234.066 31.9917 223.401 31.9917C212.883 31.845 203.387 36.3927 197.981 43.2877Z" fill="#FFF8D1" stroke="#4D4962" stroke-width="2"/>
<path d="M223.399 32.1748C217.289 32.1748 212.29 37.1749 212.29 43.2862C212.29 49.3974 217.289 54.3975 223.399 54.3975C229.509 54.3975 234.508 49.3974 234.508 43.2862C234.693 37.1749 229.694 32.1748 223.399 32.1748Z" fill="#4CAF50" stroke="#4D4962" stroke-width="2"/>
<path d="M223.4 37.9248V41.2865C223.4 42.391 222.505 43.2865 221.4 43.2865H218.04C218.04 46.2354 220.452 48.6481 223.4 48.6481C226.349 48.6481 228.761 46.2354 228.761 43.2865C228.85 40.3376 226.438 37.9248 223.4 37.9248Z" fill="white" stroke="#4D4962" stroke-width="2"/>
</svg>
