<svg width="337" height="327" viewBox="0 0 337 327" fill="none" xmlns="http://www.w3.org/2000/svg">
<circle cx="286.5" cy="8.01855" r="7.5" fill="#00B746"/>
<circle cx="10.584" cy="173.945" r="7.5" transform="rotate(41.2546 10.584 173.945)" fill="#FFC300"/>
<g filter="url(#filter0_d_1508:2183)">
<path d="M199.971 5.82621C239.399 15.6685 275.998 38.0823 292.953 75.0691C309.626 111.443 301.291 152.817 283.86 188.832C266.423 224.857 239.195 257.215 200.309 266.48C160.93 275.863 121.438 259.718 89.1879 235.216C55.5895 209.689 26.4085 175.549 25.0594 133.332C23.6613 89.5812 47.0549 48.266 82.3906 22.5071C116.063 -2.03942 159.56 -4.26139 199.971 5.82621Z" fill="white"/>
</g>
<path d="M194 54.3306L194 188.857C194 189.611 193.198 190.093 192.532 189.74L184.232 185.342C183.14 184.762 181.84 184.721 180.713 185.23L170.748 189.729C169.643 190.228 168.371 190.199 167.29 189.65L158.741 185.308C157.642 184.75 156.348 184.729 155.232 185.252L145.768 189.689C144.652 190.213 143.358 190.192 142.259 189.634L133.741 185.308C132.642 184.75 131.348 184.729 130.232 185.252L120.768 189.689C119.652 190.213 118.358 190.192 117.259 189.634L108.741 185.308C107.642 184.75 106.348 184.729 105.232 185.252L95.4245 189.851C94.7614 190.162 94 189.678 94 188.945L94 65.8194L108.949 50.3306L190 50.3306C192.209 50.3306 194 52.1215 194 54.3306Z" fill="#EFEFEF"/>
<path d="M94 65.8194L94 188.945C94 189.678 94.7614 190.162 95.4245 189.851L105.232 185.252C106.348 184.729 107.642 184.75 108.741 185.308L117.259 189.634C118.358 190.192 119.652 190.213 120.768 189.689L130.232 185.252C131.348 184.729 132.642 184.75 133.741 185.308L142.259 189.634C143.358 190.192 144.652 190.213 145.768 189.689L155.232 185.252C156.348 184.729 157.642 184.75 158.741 185.308L167.29 189.65C168.371 190.199 169.643 190.228 170.748 189.729L180.713 185.23C181.84 184.721 183.14 184.762 184.232 185.342L192.532 189.74C193.198 190.093 194 189.611 194 188.857L194 54.3306C194 52.1215 192.209 50.3306 190 50.3306L108.949 50.3306M94 65.8194L108.949 65.8194L108.949 50.3306M94 65.8194L108.949 50.3306" stroke="#4D4962" stroke-width="2"/>
<path opacity="0.5" d="M108 82.5186H180" stroke="#4D4962" stroke-width="2" stroke-linecap="round"/>
<path opacity="0.4" d="M108 96.5186H180" stroke="#4D4962" stroke-width="2" stroke-linecap="round"/>
<path opacity="0.4" d="M108 120.519H180" stroke="#4D4962" stroke-width="2" stroke-linecap="round" stroke-dasharray="4 4"/>
<path opacity="0.4" d="M108 144.519H180" stroke="#4D4962" stroke-width="2" stroke-linecap="round" stroke-dasharray="4 4"/>
<path opacity="0.5" d="M108 108.519H180" stroke="#4D4962" stroke-width="2" stroke-linecap="round"/>
<path opacity="0.5" d="M108 132.519H180" stroke="#4D4962" stroke-width="2" stroke-linecap="round" stroke-dasharray="4 4"/>
<path d="M134 66V214C134 216.209 135.791 218 138 218H242C244.209 218 246 216.209 246 214V66C246 63.7909 244.209 62 242 62H138C135.791 62 134 63.7909 134 66Z" fill="#FFEAAD" stroke="#4D4962" stroke-width="2"/>
<path d="M220.2 73.6459C220.2 90.5712 206.479 104.292 189.554 104.292C172.628 104.292 158.908 90.5712 158.908 73.6459C158.908 56.7207 172.628 43 189.554 43C206.479 43 220.2 56.7207 220.2 73.6459Z" fill="#FFEAAD" stroke="#4D4962" stroke-width="2"/>
<path d="M172.586 73.126H171.586V74.126V98.4616V99.1253L172.198 99.3831L177.36 101.56L178.733 102.139L178.748 100.648L179.016 74.1361L179.026 73.126H178.016H172.586Z" fill="#2196F3" stroke="#4D4962" stroke-width="2"/>
<rect x="185.16" y="68.002" width="8.78716" height="31.46" fill="#00B746" stroke="#4D4962" stroke-width="2"/>
<path d="M201.092 79.2109H200.092V80.2109V100.724V102.223L201.476 101.647L206.906 99.3859L207.522 99.1295V98.4627V80.2109V79.2109H206.522H201.092Z" fill="#2196F3" stroke="#4D4962" stroke-width="2"/>
<path d="M167.069 86.1831C167.714 84.719 169.791 84.719 170.437 86.1831C171.112 87.7149 172.702 88.6327 174.366 88.4518C175.957 88.2788 176.996 90.0778 176.051 91.3689C175.062 92.7197 175.062 94.5554 176.051 95.9062C176.996 97.1973 175.957 98.9963 174.366 98.8234C172.702 98.6424 171.112 99.5602 170.437 101.092C169.791 102.556 167.714 102.556 167.069 101.092C166.393 99.5602 164.803 98.6424 163.139 98.8234C161.548 98.9963 160.51 97.1973 161.455 95.9062C162.444 94.5554 162.444 92.7197 161.455 91.3689C160.51 90.0778 161.548 88.2788 163.139 88.4518C164.803 88.6327 166.393 87.7149 167.069 86.1831Z" fill="#FFC300" stroke="#4D4962" stroke-width="2"/>
<path d="M188.304 98.6607C188.949 97.1966 191.027 97.1966 191.672 98.6607C192.348 100.192 193.938 101.11 195.602 100.929C197.192 100.756 198.231 102.555 197.286 103.846C196.297 105.197 196.297 107.033 197.286 108.384C198.231 109.675 197.192 111.474 195.602 111.301C193.938 111.12 192.348 112.038 191.672 113.57C191.027 115.034 188.949 115.034 188.304 113.57C187.629 112.038 186.039 111.12 184.375 111.301C182.784 111.474 181.745 109.675 182.69 108.384C183.679 107.033 183.679 105.197 182.69 103.846C181.745 102.555 182.784 100.756 184.375 100.929C186.039 101.11 187.629 100.192 188.304 98.6607Z" fill="#FFC300" stroke="#4D4962" stroke-width="2"/>
<path d="M208.67 86.1831C209.316 84.719 211.393 84.719 212.039 86.1831C212.714 87.7149 214.304 88.6327 215.968 88.4518C217.559 88.2788 218.597 90.0778 217.652 91.3689C216.663 92.7197 216.663 94.5554 217.652 95.9062C218.597 97.1973 217.559 98.9963 215.968 98.8234C214.304 98.6424 212.714 99.5602 212.039 101.092C211.393 102.556 209.316 102.556 208.67 101.092C207.995 99.5602 206.405 98.6424 204.741 98.8234C203.15 98.9963 202.111 97.1973 203.057 95.9062C204.045 94.5554 204.045 92.7197 203.057 91.3689C202.111 90.0778 203.15 88.2788 204.741 88.4518C206.405 88.6327 207.995 87.7149 208.67 86.1831Z" fill="#FFC300" stroke="#4D4962" stroke-width="2"/>
<path opacity="0.5" d="M155.006 168.486H224.006" stroke="#4D4962" stroke-width="2" stroke-linecap="round" stroke-dasharray="4 4"/>
<path d="M155 127.959L156.331 129.503C157.123 130.421 158.544 130.429 159.346 129.519L164 124.24" stroke="#4D4962" stroke-width="2" stroke-linecap="round"/>
<path d="M155 139.959L156.331 141.503C157.123 142.421 158.544 142.429 159.346 141.519L164 136.24" stroke="#4D4962" stroke-width="2" stroke-linecap="round"/>
<path d="M155 151.959L156.331 153.503C157.123 154.421 158.544 154.429 159.346 153.519L164 148.24" stroke="#4D4962" stroke-width="2" stroke-linecap="round"/>
<path d="M172 130.24H224" stroke="#4D4962" stroke-width="2" stroke-linecap="round"/>
<path d="M194 142.24H224" stroke="#4D4962" stroke-width="2" stroke-linecap="round"/>
<path d="M172 142.24L189 142.24" stroke="#4D4962" stroke-width="2" stroke-linecap="round"/>
<path d="M172 154.24L189 154.24" stroke="#4D4962" stroke-width="2" stroke-linecap="round"/>
<path d="M194 154.24H224" stroke="#4D4962" stroke-width="2" stroke-linecap="round"/>
<path d="M331.5 134.235C331.5 149.779 318.692 162.516 302.723 162.516C286.754 162.516 273.946 149.779 273.946 134.235C273.946 118.692 286.754 105.955 302.723 105.955C318.692 105.955 331.5 118.692 331.5 134.235Z" stroke="#00B746" stroke-width="11"/>
<path d="M162.193 236.1L172.99 217.398C173.267 216.92 173.878 216.756 174.357 217.032L189.14 225.568C189.619 225.844 189.782 226.455 189.506 226.934L178.709 245.635C178.262 246.41 177.101 246.253 176.875 245.388L174.316 235.595C174.176 235.056 173.621 234.736 173.084 234.884L163.324 237.564C162.462 237.801 161.746 236.874 162.193 236.1Z" fill="#00B746" stroke="#4D4962" stroke-width="2"/>
<path d="M222.163 236.1L211.365 217.398C211.089 216.92 210.478 216.756 209.999 217.032L195.215 225.568C194.737 225.844 194.573 226.455 194.849 226.934L205.647 245.635C206.094 246.41 207.254 246.253 207.48 245.388L210.039 235.595C210.18 235.056 210.734 234.736 211.272 234.884L221.032 237.564C221.894 237.801 222.61 236.874 222.163 236.1Z" fill="#00B746" stroke="#4D4962" stroke-width="2"/>
<path d="M186.268 188.206C189.052 185.073 193.947 185.073 196.732 188.206L199.563 191.391C200.852 192.842 202.575 193.836 204.475 194.228L208.649 195.087C212.755 195.932 215.202 200.171 213.881 204.149L212.538 208.193C211.927 210.035 211.927 212.024 212.538 213.866L213.881 217.91C215.202 221.888 212.755 226.127 208.649 226.972L204.475 227.831C202.575 228.222 200.852 229.217 199.563 230.667L196.732 233.852C193.947 236.985 189.052 236.985 186.268 233.852L183.437 230.667C182.148 229.217 180.425 228.222 178.524 227.831L174.35 226.972C170.245 226.127 167.798 221.888 169.118 217.91L170.461 213.866C171.073 212.024 171.073 210.035 170.461 208.193L169.118 204.149C167.798 200.171 170.245 195.932 174.35 195.087L178.524 194.228C180.425 193.836 182.148 192.842 183.437 191.391L186.268 188.206Z" fill="#00B746" stroke="#4D4962" stroke-width="2"/>
<circle cx="191.5" cy="211.029" r="17.5" fill="white" stroke="#4D4962" stroke-width="2"/>
<path d="M191.09 200.396C191.488 199.823 192.334 199.823 192.732 200.396L195.564 204.469C195.957 205.033 196.531 205.446 197.19 205.637L201.953 207.021C202.632 207.219 202.897 208.039 202.462 208.597L199.459 212.444C199.03 212.994 198.806 213.676 198.825 214.374L198.961 219.253C198.981 219.954 198.292 220.457 197.631 220.225L192.904 218.568C192.261 218.343 191.561 218.343 190.919 218.568L186.192 220.225C185.53 220.457 184.842 219.954 184.861 219.253L184.997 214.374C185.017 213.676 184.793 212.994 184.363 212.444L181.361 208.597C180.925 208.039 181.191 207.219 181.87 207.021L186.632 205.637C187.292 205.446 187.866 205.033 188.258 204.469L191.09 200.396Z" fill="#FFC300" stroke="#4D4962" stroke-width="2"/>
<path d="M69.5483 124.949C69.5483 124.397 69.9961 123.949 70.5483 123.949H99.713C100.265 123.949 100.713 123.502 100.713 122.949V112.934C100.713 112.04 101.796 111.595 102.424 112.23L117.756 127.729C118.141 128.118 118.141 128.746 117.756 129.135L102.424 144.634C101.796 145.269 100.713 144.824 100.713 143.931V133.915C100.713 133.363 100.265 132.915 99.713 132.915H70.5483C69.9961 132.915 69.5483 132.467 69.5483 131.915V124.949Z" fill="#00B746" stroke="#4D4962" stroke-width="2"/>
<path d="M118.452 155.361C118.452 154.809 118.004 154.361 117.452 154.361H88.287C87.7347 154.361 87.287 153.914 87.287 153.361V143.346C87.287 142.452 86.2045 142.007 85.5761 142.643L70.2442 158.141C69.8588 158.531 69.8588 159.158 70.2442 159.548L85.5761 175.046C86.2045 175.681 87.287 175.236 87.287 174.343V164.327C87.287 163.775 87.7347 163.327 88.287 163.327H117.452C118.004 163.327 118.452 162.879 118.452 162.327V155.361Z" fill="#2196F3" stroke="#4D4962" stroke-width="2"/>
<circle cx="102.224" cy="249.592" r="16" transform="rotate(41.2546 102.224 249.592)" stroke="#2196F3" stroke-width="8"/>
<defs>
<filter id="filter0_d_1508:2183" x="3" y="0.18457" width="321" height="326" filterUnits="userSpaceOnUse" color-interpolation-filters="sRGB">
<feFlood flood-opacity="0" result="BackgroundImageFix"/>
<feColorMatrix in="SourceAlpha" type="matrix" values="0 0 0 0 0 0 0 0 0 0 0 0 0 0 0 0 0 0 127 0" result="hardAlpha"/>
<feOffset dy="35"/>
<feGaussianBlur stdDeviation="11"/>
<feComposite in2="hardAlpha" operator="out"/>
<feColorMatrix type="matrix" values="0 0 0 0 0 0 0 0 0 0 0 0 0 0 0 0 0 0 0.03 0"/>
<feBlend mode="normal" in2="BackgroundImageFix" result="effect1_dropShadow_1508:2183"/>
<feBlend mode="normal" in="SourceGraphic" in2="effect1_dropShadow_1508:2183" result="shape"/>
</filter>
</defs>
</svg>
