<svg width="305" height="197" viewBox="0 0 305 197" fill="none" xmlns="http://www.w3.org/2000/svg">
<path d="M244.53 15.8047H200.07C198.965 15.8047 198.07 16.7001 198.07 17.8047V54.3007C198.07 55.4052 198.965 56.3007 200.07 56.3007H244.53C245.635 56.3007 246.53 55.4052 246.53 54.3007V17.8047C246.53 16.7001 245.635 15.8047 244.53 15.8047Z" fill="#FFC300" stroke="#4D4962" stroke-width="2"/>
<path d="M280.142 67.7747C283.517 68.1797 286.486 69.3945 289.186 71.1494L293.236 67.0998L297.42 71.2843L293.506 75.199C295.53 77.7637 296.88 80.7334 297.555 83.9731H303.36V89.9125H297.825C297.42 93.2872 296.205 96.2569 294.451 98.9566L298.5 103.006L294.316 107.191L290.401 103.276C287.836 105.301 284.867 106.651 281.627 107.326V113.13H275.552V107.596C272.178 107.191 269.208 105.976 266.508 104.221L262.459 108.271L258.274 104.086L262.189 100.171C260.164 97.6067 258.814 94.637 258.139 91.3973H252.335V85.4579H257.869C258.274 82.0833 259.489 79.1136 261.244 76.4138L257.194 72.3642L261.379 68.1797L265.293 72.0943C267.858 70.0695 270.828 68.7196 274.068 68.0447V62.2402H280.007V67.7747H280.142Z" fill="#4CAF50" stroke="#4D4962" stroke-width="2"/>
<path d="M277.847 76.1973C284.179 76.1973 289.266 81.284 289.266 87.616C289.266 93.9481 284.179 99.0348 277.847 99.0348C271.515 99.0348 266.428 93.9481 266.428 87.616C266.428 81.284 271.515 76.1973 277.847 76.1973Z" fill="#FFF8D1" stroke="#4D4962" stroke-width="2"/>
<path d="M216.334 43.0769C216.015 43.0769 215.855 42.9173 215.536 42.7577L210.269 37.4901C209.79 37.0112 209.79 36.3727 210.269 36.0535L215.536 30.7859C216.015 30.307 216.654 30.307 216.973 30.7859C217.452 31.2648 217.452 31.9033 216.973 32.2225L212.344 36.8516L216.973 41.4807C217.452 41.9595 217.452 42.598 216.973 42.9173C216.813 42.9173 216.494 43.0769 216.334 43.0769Z" fill="#4D4962"/>
<path d="M228.465 43.0744C228.146 43.0744 227.987 42.9148 227.667 42.7552C227.188 42.2763 227.188 41.6378 227.667 41.3186L232.296 36.6895L227.667 32.0604C227.188 31.5815 227.188 30.943 227.667 30.6238C228.146 30.1449 228.785 30.1449 229.104 30.6238L234.371 35.8914C234.531 36.051 234.691 36.3702 234.691 36.6895C234.691 37.0087 234.531 37.1684 234.371 37.4876L229.104 42.7552C228.944 42.9148 228.625 43.0744 228.465 43.0744Z" fill="#4D4962"/>
<path d="M219.048 45.9476C218.888 45.9476 218.729 45.9476 218.729 45.9476C218.25 45.7879 217.931 45.1494 218.09 44.6706L225.114 26.6331C225.273 26.1543 225.912 25.835 226.391 25.9946C226.87 26.1543 227.189 26.7927 227.029 27.2716L220.006 45.3091C219.846 45.7879 219.367 45.9476 219.048 45.9476Z" fill="#4D4962"/>
<path d="M277.037 59.2702C276.497 59.2702 276.092 58.8653 276.092 58.3253V33.8927H251.525C250.985 33.8927 250.58 33.4878 250.58 32.9478C250.58 32.4079 250.985 32.0029 251.525 32.0029H276.902C277.442 32.0029 277.847 32.4079 277.847 32.9478V58.3253C277.982 58.8653 277.577 59.2702 277.037 59.2702Z" fill="#4D4962"/>
<path d="M277.037 59.2703C276.767 59.2703 276.497 59.1353 276.362 59.0003L271.907 53.8708C271.637 53.4658 271.637 52.9259 272.042 52.6559C272.447 52.386 272.987 52.3859 273.257 52.7909L277.037 57.2455L280.817 52.7909C281.086 52.3859 281.626 52.386 282.031 52.6559C282.436 52.9259 282.436 53.4658 282.166 53.8708L277.712 59.0003C277.577 59.1353 277.307 59.2703 277.037 59.2703Z" fill="#4D4962"/>
<path d="M246.935 88.4275H221.557C221.017 88.4275 220.612 88.0225 220.612 87.4825V62.1051C220.612 61.5651 221.017 61.1602 221.557 61.1602C222.097 61.1602 222.502 61.5651 222.502 62.1051V86.5376H247.07C247.61 86.5376 248.015 86.9426 248.015 87.4825C247.745 88.0225 247.475 88.4275 246.935 88.4275Z" fill="#4D4962"/>
<path d="M217.103 68.314C216.968 68.314 216.698 68.179 216.563 68.044C216.158 67.774 216.158 67.2341 216.428 66.8292L220.882 61.6997C221.017 61.5647 221.287 61.4297 221.557 61.4297C221.827 61.4297 222.097 61.5647 222.232 61.6997L226.687 66.8292C226.957 67.2341 226.957 67.774 226.552 68.044C226.147 68.314 225.607 68.314 225.337 67.909L221.557 63.4545L217.778 67.909C217.643 68.179 217.373 68.314 217.103 68.314Z" fill="#4D4962"/>
<path d="M91.1877 74.4434H188.207C189.864 74.4434 191.207 75.7865 191.207 77.4434V157.455C191.207 159.111 189.864 160.455 188.207 160.455H91.1877C89.5309 160.455 88.1877 159.111 88.1877 157.455V77.4434C88.1877 75.7865 89.5309 74.4434 91.1877 74.4434Z" fill="#FFF8D1" stroke="#4D4962" stroke-width="2"/>
<path d="M101.631 80.4629C103.521 80.4629 105.006 81.9477 105.006 83.8376C105.006 85.7274 103.521 87.2122 101.631 87.2122C99.7414 87.2122 98.2566 85.7274 98.2566 83.8376C98.2566 81.9477 99.8764 80.4629 101.631 80.4629Z" fill="#00B746" stroke="#4D4962" stroke-width="2"/>
<path d="M124.039 80.4629C125.929 80.4629 127.414 81.9477 127.414 83.8376C127.414 85.7274 125.929 87.2122 124.039 87.2122C122.149 87.2122 120.664 85.7274 120.664 83.8376C120.664 81.9477 122.149 80.4629 124.039 80.4629Z" fill="#FFC300" stroke="#4D4962" stroke-width="2"/>
<path d="M146.312 80.4629C148.202 80.4629 149.687 81.9477 149.687 83.8376C149.687 85.7274 148.202 87.2122 146.312 87.2122C144.422 87.2122 142.937 85.7274 142.937 83.8376C142.937 81.9477 144.557 80.4629 146.312 80.4629Z" fill="#FFC300" stroke="#4D4962" stroke-width="2"/>
<path d="M164.256 113.75H163.256V114.75V180.218V181.218H164.256H203.672H204.733L204.67 180.16C204.547 178.053 205.043 175.781 205.938 173.735L206.551 172.334H205.022H173.625V114.75V113.75H172.625H164.256Z" fill="#2196F3" stroke="#4D4962" stroke-width="2"/>
<path d="M172.625 107.864H221.76V165.099V173.333H204.887H172.49V107.864H172.625Z" fill="#8EDDFB" stroke="#4D4962" stroke-width="2"/>
<path d="M213.391 159.565H197.867C197.327 159.565 196.922 159.16 196.922 158.62C196.922 158.08 197.327 157.675 197.867 157.675H213.256C213.796 157.675 214.201 158.08 214.201 158.62C214.201 159.16 213.796 159.565 213.391 159.565Z" fill="#4D4962"/>
<path d="M213.391 123.253H197.867C197.327 123.253 196.922 122.848 196.922 122.308C196.922 121.768 197.327 121.363 197.867 121.363H213.256C213.796 121.363 214.201 121.768 214.201 122.308C214.201 122.848 213.796 123.253 213.391 123.253Z" fill="#4D4962"/>
<path d="M213.391 141.477H197.867C197.327 141.477 196.922 141.072 196.922 140.532C196.922 139.992 197.327 139.587 197.867 139.587H213.256C213.796 139.587 214.201 139.992 214.201 140.532C214.201 141.072 213.796 141.477 213.391 141.477Z" fill="#4D4962"/>
<path d="M182.344 125.953C182.344 125.953 182.209 125.953 182.344 125.953C181.939 125.953 181.804 125.818 181.669 125.548L179.779 122.983C179.509 122.578 179.644 122.038 179.914 121.768C180.319 121.498 180.859 121.633 181.129 121.903L182.344 123.658L188.013 118.799C188.418 118.529 188.958 118.529 189.228 118.933C189.498 119.338 189.498 119.878 189.093 120.148L182.749 125.683C182.749 125.818 182.479 125.953 182.344 125.953Z" fill="#4D4962"/>
<path d="M183.019 144.041C182.749 144.041 182.614 143.906 182.479 143.771C182.074 143.501 182.074 142.826 182.479 142.556L187.339 137.292C187.609 136.887 188.283 136.887 188.553 137.292C188.958 137.562 188.958 138.237 188.553 138.507L183.694 143.771C183.424 143.906 183.154 144.041 183.019 144.041Z" fill="#4D4962"/>
<path d="M187.879 144.042C187.609 144.042 187.474 143.907 187.204 143.772L182.344 138.507C182.074 138.102 182.074 137.562 182.344 137.292C182.749 137.022 183.289 137.022 183.559 137.292L188.419 142.557C188.689 142.962 188.689 143.502 188.419 143.772C188.284 143.907 188.014 144.042 187.879 144.042Z" fill="#4D4962"/>
<path d="M182.344 162.4C182.344 162.4 182.209 162.4 182.344 162.4C181.939 162.4 181.804 162.265 181.669 161.995L179.779 159.43C179.509 159.025 179.644 158.485 179.914 158.215C180.319 157.946 180.859 158.08 181.129 158.35L182.344 160.105L188.013 155.246C188.418 154.976 188.958 154.976 189.228 155.381C189.498 155.786 189.498 156.326 189.093 156.596L182.749 162.13C182.749 162.265 182.479 162.4 182.344 162.4Z" fill="#4D4962"/>
<path d="M201.405 165.666H234.313V187.922H217.003L212.248 191.346L207.302 194.77V187.922H201.405V165.666Z" fill="#FACA44" stroke="#4D4962" stroke-width="2"/>
<path d="M164.256 38.498H39.9041V172.498" stroke="#4D4962" stroke-width="2" stroke-dasharray="4 4"/>
<path d="M210.303 172.432H226.526" stroke="#4D4962" stroke-width="2" stroke-linecap="round"/>
<path d="M210.303 179.015H226.526" stroke="#4D4962" stroke-width="2" stroke-linecap="round"/>
<path d="M89.2053 93.3037H190.267" stroke="#4D4962" stroke-width="2" stroke-linecap="round"/>
<path d="M98.7507 108.364H145.231" stroke="#4D4962" stroke-width="2" stroke-linecap="round"/>
<path d="M98.7507 132.738H145.231" stroke="#4D4962" stroke-width="2" stroke-linecap="round"/>
<path d="M98.7507 120.959H113.645" stroke="#4D4962" stroke-width="2" stroke-linecap="round"/>
<path d="M98.7507 145.899H113.645" stroke="#4D4962" stroke-width="2" stroke-linecap="round"/>
<path d="M120.665 120.959H145.231" stroke="#4D4962" stroke-width="2" stroke-linecap="round"/>
<path d="M120.665 145.899H145.231" stroke="#4D4962" stroke-width="2" stroke-linecap="round"/>
<path d="M1.75317 38.3284C1.75317 17.7556 18.3908 1.23047 38.9635 1.23047C59.5363 1.23047 76.1743 17.8685 76.1743 38.3288C76.1743 58.7891 59.5365 75.5392 38.9637 75.5392C18.391 75.5392 1.75317 58.9011 1.75317 38.3284Z" fill="#8EDDFB" stroke="#4D4962" stroke-width="2"/>
<path d="M38.8518 2.23047C43.2553 2.23047 47.4971 5.92086 50.6966 12.5555C53.8638 19.1228 55.8389 28.2704 55.8389 38.4412C55.8389 48.6121 53.8638 57.7597 50.6966 64.327C47.4971 70.9616 43.2553 74.652 38.8518 74.652C34.4483 74.652 30.2066 70.9616 27.007 64.327C23.8399 57.7597 21.8647 48.6121 21.8647 38.4412C21.8647 28.2725 23.8672 19.1251 27.0484 12.557C30.2639 5.91822 34.5061 2.23047 38.8518 2.23047Z" fill="#2196F3" stroke="#4D4962" stroke-width="2"/>
<path d="M38.9641 1.23047V75.7644" stroke="#4D4962" stroke-width="2"/>
<path d="M76.1744 38.3857H1.64038" stroke="#4D4962" stroke-width="2"/>
<path d="M14.2324 10.7861C21.09 16.7444 29.8587 20.0045 38.9647 20.0045C48.0706 20.0045 56.8393 16.7444 63.6969 10.7861" stroke="#4D4962" stroke-width="2"/>
<path d="M14.2314 66.3232C21.089 60.365 29.8577 57.1049 38.9637 57.1049C48.0696 57.1049 56.8383 60.365 63.6959 66.3233" stroke="#4D4962" stroke-width="2"/>
</svg>
