<svg width="14" height="11" viewBox="0 0 14 11" fill="none" xmlns="http://www.w3.org/2000/svg">
<path d="M6.4522 10.0457C6.51336 10.1345 6.5952 10.2071 6.69066 10.2573C6.78613 10.3075 6.89236 10.3337 7.0002 10.3337C7.10805 10.3337 7.21428 10.3075 7.30974 10.2573C7.40521 10.2071 7.48704 10.1345 7.5482 10.0457L13.5482 1.37901C13.6177 1.27905 13.6584 1.16196 13.666 1.04048C13.6735 0.918995 13.6477 0.797757 13.5912 0.689937C13.5347 0.582118 13.4498 0.49184 13.3456 0.428913C13.2414 0.365987 13.1219 0.332817 13.0002 0.333009L1.0002 0.333009C0.878764 0.33351 0.759761 0.367106 0.655989 0.430184C0.552217 0.493261 0.467604 0.583434 0.411248 0.691004C0.354892 0.798574 0.328925 0.919472 0.336141 1.0407C0.343357 1.16192 0.383483 1.27888 0.452202 1.37901L6.4522 10.0457Z" fill="#D1EDF6"/>
</svg>
