<svg width="238" height="238" viewBox="0 0 238 238" fill="none" xmlns="http://www.w3.org/2000/svg">
<path d="M224.852 156C233.366 131.315 233.028 104.429 223.897 79.9668C214.765 55.5046 197.41 34.9959 174.817 21.9689C152.225 8.94186 125.807 4.21107 100.11 8.59037C85.785 11.0316 72.183 16.2187 60.0005 23.7578" stroke="#00B746" stroke-width="14" stroke-linecap="round"/>
<path d="M40.0005 40C24.2435 55.6944 13.5128 75.6904 9.16544 97.4592C6.54938 110.559 6.31551 123.946 8.40236 137" stroke="#2196F3" stroke-width="14" stroke-linecap="round"/>
<path d="M213 180C205.72 191.249 196.449 201.17 185.562 209.231C172.261 219.078 157.032 225.792 141 229" stroke="#565656" stroke-width="14" stroke-linecap="round"/>
<path d="M15.0005 162C23.4926 182.442 37.8735 199.913 56.3245 212.206C73.7602 223.822 94.0905 230.32 115 231" stroke="#FFC300" stroke-width="14" stroke-linecap="round"/>
<path d="M75 115.88C75 118.12 74.1067 120.053 72.32 121.68C70.5333 123.28 68.1867 124.213 65.28 124.48V129.8H60.72V124.28C58.2667 123.773 56.1867 122.773 54.48 121.28C52.7733 119.76 51.5867 118.027 50.92 116.08L56.12 114.48C56.7333 116.027 57.7333 117.293 59.12 118.28C60.5067 119.24 62.1733 119.72 64.12 119.72C65.6933 119.72 66.9733 119.373 67.96 118.68C68.9733 117.987 69.48 117.16 69.48 116.2C69.48 115.453 69.1867 114.813 68.6 114.28C68.04 113.747 67.0933 113.267 65.76 112.84L58.64 110.6C56.6933 109.987 55.1467 109.08 54 107.88C52.8533 106.68 52.28 105.213 52.28 103.48C52.28 101.48 53.0667 99.7333 54.64 98.24C56.2133 96.72 58.24 95.8133 60.72 95.52V90.2H65.28V95.72C67.4667 96.1467 69.36 97 70.96 98.28C72.5867 99.5333 73.72 100.987 74.36 102.64L69.28 104.12C68.6933 102.973 67.7733 102.053 66.52 101.36C65.2933 100.64 63.9067 100.28 62.36 100.28C61.0267 100.28 59.9333 100.573 59.08 101.16C58.2533 101.747 57.84 102.467 57.84 103.32C57.84 104.547 58.7467 105.427 60.56 105.96L67.52 108.2C69.9467 108.947 71.8 109.893 73.08 111.04C74.36 112.16 75 113.773 75 115.88ZM96.2072 119.04H108.087V124H87.8472V120.24L98.7672 109.96C99.9405 108.867 100.807 107.92 101.367 107.12C101.927 106.32 102.207 105.453 102.207 104.52C102.207 103.24 101.821 102.227 101.047 101.48C100.274 100.733 99.1939 100.36 97.8072 100.36C96.5272 100.36 95.4205 100.787 94.4872 101.64C93.5805 102.467 92.9805 103.573 92.6872 104.96L87.7672 103.56C88.0605 101.347 89.1139 99.44 90.9272 97.84C92.7672 96.24 95.0205 95.44 97.6872 95.44C100.674 95.44 103.074 96.2133 104.887 97.76C106.727 99.3067 107.647 101.467 107.647 104.24C107.647 105.893 107.234 107.4 106.407 108.76C105.581 110.093 104.287 111.573 102.527 113.2L96.2072 119.04ZM130.66 120.52C128.633 123.213 125.806 124.56 122.18 124.56C118.553 124.56 115.713 123.213 113.66 120.52C111.606 117.8 110.58 114.293 110.58 110C110.58 105.68 111.606 102.173 113.66 99.48C115.713 96.7867 118.553 95.44 122.18 95.44C125.806 95.44 128.633 96.7867 130.66 99.48C132.713 102.173 133.74 105.68 133.74 110C133.74 114.293 132.713 117.8 130.66 120.52ZM117.62 117C118.66 118.707 120.18 119.56 122.18 119.56C124.18 119.56 125.686 118.707 126.7 117C127.74 115.293 128.26 112.96 128.26 110C128.26 107.04 127.74 104.707 126.7 103C125.686 101.293 124.18 100.44 122.18 100.44C120.18 100.44 118.66 101.293 117.62 103C116.58 104.707 116.06 107.04 116.06 110C116.06 112.96 116.58 115.293 117.62 117ZM156.636 120.52C154.61 123.213 151.783 124.56 148.156 124.56C144.53 124.56 141.69 123.213 139.636 120.52C137.583 117.8 136.556 114.293 136.556 110C136.556 105.68 137.583 102.173 139.636 99.48C141.69 96.7867 144.53 95.44 148.156 95.44C151.783 95.44 154.61 96.7867 156.636 99.48C158.69 102.173 159.716 105.68 159.716 110C159.716 114.293 158.69 117.8 156.636 120.52ZM143.596 117C144.636 118.707 146.156 119.56 148.156 119.56C150.156 119.56 151.663 118.707 152.676 117C153.716 115.293 154.236 112.96 154.236 110C154.236 107.04 153.716 104.707 152.676 103C151.663 101.293 150.156 100.44 148.156 100.44C146.156 100.44 144.636 101.293 143.596 103C142.556 104.707 142.036 107.04 142.036 110C142.036 112.96 142.556 115.293 143.596 117ZM182.173 124L173.333 112.28L169.213 116.84V124H163.733V96H169.213V109.56L181.013 96H187.973L176.933 108.24L188.853 124H182.173Z" fill="#2196F3"/>
<path d="M93.504 152.208C92.288 152.208 91.2373 151.883 90.352 151.232C89.4667 150.581 88.8693 149.787 88.56 148.848L89.776 148.48C90.032 149.227 90.496 149.845 91.168 150.336C91.8507 150.816 92.6507 151.056 93.568 151.056C94.432 151.056 95.136 150.848 95.68 150.432C96.224 150.005 96.496 149.515 96.496 148.96C96.496 148.523 96.3413 148.16 96.032 147.872C95.7227 147.573 95.1947 147.307 94.448 147.072L91.648 146.176C89.9947 145.643 89.168 144.768 89.168 143.552C89.168 142.741 89.5253 142.048 90.24 141.472C90.9547 140.885 91.8453 140.592 92.912 140.592C94.0213 140.592 94.9707 140.848 95.76 141.36C96.56 141.872 97.1307 142.523 97.472 143.312L96.288 143.68C96.0107 143.083 95.5787 142.613 94.992 142.272C94.4053 141.92 93.7067 141.744 92.896 141.744C92.1813 141.744 91.5947 141.92 91.136 142.272C90.6773 142.624 90.448 143.04 90.448 143.52C90.448 143.893 90.5813 144.203 90.848 144.448C91.1147 144.693 91.5627 144.917 92.192 145.12L94.912 145.984C95.872 146.293 96.5867 146.661 97.056 147.088C97.5253 147.515 97.76 148.117 97.76 148.896C97.76 149.813 97.36 150.597 96.56 151.248C95.76 151.888 94.7413 152.208 93.504 152.208ZM103.298 152.208C102.146 152.208 101.186 151.808 100.418 151.008C99.6501 150.208 99.2661 149.205 99.2661 148C99.2661 146.805 99.6501 145.813 100.418 145.024C101.186 144.224 102.146 143.824 103.298 143.824C104.695 143.824 105.746 144.368 106.45 145.456V144.016H107.682V152H106.45V150.544C105.757 151.653 104.706 152.208 103.298 152.208ZM103.474 151.088C104.306 151.088 105.015 150.795 105.602 150.208C106.189 149.621 106.482 148.891 106.482 148.016C106.482 147.141 106.189 146.411 105.602 145.824C105.015 145.237 104.306 144.944 103.474 144.944C102.599 144.944 101.879 145.232 101.314 145.808C100.759 146.384 100.482 147.12 100.482 148.016C100.482 148.901 100.759 149.637 101.314 150.224C101.879 150.8 102.599 151.088 103.474 151.088ZM115.98 144.016H117.308L113.836 152H112.476L109.004 144.016H110.332L113.164 150.656L115.98 144.016ZM119.964 142.288C119.804 142.448 119.602 142.528 119.356 142.528C119.111 142.528 118.908 142.448 118.748 142.288C118.588 142.128 118.508 141.925 118.508 141.68C118.508 141.456 118.588 141.264 118.748 141.104C118.919 140.944 119.122 140.864 119.356 140.864C119.591 140.864 119.788 140.944 119.948 141.104C120.119 141.264 120.204 141.456 120.204 141.68C120.204 141.925 120.124 142.128 119.964 142.288ZM118.748 152V144.016H119.98V152H118.748ZM126.642 143.824C127.634 143.824 128.413 144.133 128.978 144.752C129.554 145.371 129.842 146.224 129.842 147.312V152H128.61V147.488C128.61 146.699 128.413 146.085 128.018 145.648C127.634 145.2 127.085 144.976 126.37 144.976C125.57 144.976 124.919 145.253 124.418 145.808C123.927 146.363 123.682 147.088 123.682 147.984V152H122.45V144.016H123.682V145.424C123.981 144.944 124.381 144.56 124.882 144.272C125.394 143.973 125.981 143.824 126.642 143.824ZM138.825 144.016H140.041V151.728C140.041 152.837 139.673 153.755 138.937 154.48C138.201 155.205 137.251 155.568 136.089 155.568C134.339 155.568 133.075 154.869 132.297 153.472L133.385 153.072C133.95 154.021 134.857 154.496 136.105 154.496C136.937 154.496 137.593 154.235 138.073 153.712C138.553 153.189 138.803 152.528 138.825 151.728V150.368C138.131 151.392 137.086 151.904 135.689 151.904C134.526 151.904 133.561 151.52 132.793 150.752C132.035 149.973 131.657 149.008 131.657 147.856C131.657 146.693 132.035 145.733 132.793 144.976C133.561 144.208 134.526 143.824 135.689 143.824C137.097 143.824 138.142 144.331 138.825 145.344V144.016ZM135.865 150.784C136.697 150.784 137.401 150.507 137.977 149.952C138.553 149.387 138.841 148.693 138.841 147.872C138.841 147.04 138.553 146.347 137.977 145.792C137.401 145.227 136.697 144.944 135.865 144.944C134.99 144.944 134.27 145.221 133.705 145.776C133.15 146.32 132.873 147.019 132.873 147.872C132.873 148.715 133.15 149.413 133.705 149.968C134.27 150.512 134.99 150.784 135.865 150.784ZM145.362 152.208C144.477 152.208 143.693 151.979 143.01 151.52C142.338 151.051 141.901 150.475 141.698 149.792L142.85 149.472C143 149.952 143.304 150.352 143.762 150.672C144.232 150.981 144.776 151.136 145.394 151.136C145.981 151.136 146.461 151.008 146.834 150.752C147.208 150.496 147.394 150.187 147.394 149.824C147.394 149.515 147.304 149.28 147.122 149.12C146.941 148.949 146.642 148.8 146.226 148.672L143.954 148C142.717 147.637 142.098 146.992 142.098 146.064C142.098 145.456 142.381 144.933 142.946 144.496C143.512 144.048 144.205 143.824 145.026 143.824C145.848 143.824 146.552 144.011 147.138 144.384C147.736 144.757 148.157 145.232 148.402 145.808L147.282 146.144C147.133 145.781 146.856 145.477 146.45 145.232C146.045 144.987 145.565 144.864 145.01 144.864C144.509 144.864 144.098 144.987 143.778 145.232C143.469 145.477 143.314 145.749 143.314 146.048C143.314 146.475 143.672 146.795 144.386 147.008L146.658 147.68C147.266 147.861 147.741 148.112 148.082 148.432C148.434 148.741 148.61 149.184 148.61 149.76C148.61 150.464 148.301 151.051 147.682 151.52C147.074 151.979 146.301 152.208 145.362 152.208Z" fill="#565656"/>
</svg>
