<svg width="244" height="244" viewBox="0 0 244 244" fill="none" xmlns="http://www.w3.org/2000/svg">
<path d="M159 16.1485C134.315 7.63417 107.429 7.97203 82.9668 17.104C58.5046 26.2359 37.9959 43.5909 24.9689 66.1834C11.9418 88.7758 7.21106 115.193 11.5904 140.89C14.0316 155.215 19.2187 168.817 26.7578 181" stroke="#2196F3" stroke-width="20" stroke-linecap="round"/>
<path d="M43 201C58.6944 216.757 78.6904 227.488 100.459 231.835C113.559 234.451 126.946 234.685 140 232.598" stroke="#00B746" stroke-width="20" stroke-linecap="round"/>
<path d="M183 28C194.249 35.2801 204.17 44.5517 212.231 55.4385C222.078 68.7393 228.792 83.9682 232 100" stroke="#FFC300" stroke-width="20" stroke-linecap="round"/>
<path d="M165 226C185.442 217.508 202.913 203.127 215.206 184.676C226.822 167.24 233.32 146.91 234 126" stroke="#565656" stroke-width="20" stroke-linecap="round"/>
</svg>
