<svg width="20" height="20" viewBox="0 0 20 20" fill="none" xmlns="http://www.w3.org/2000/svg">
<g opacity="0.5">
<path fill-rule="evenodd" clip-rule="evenodd" d="M9.99984 18.3332C5.39734 18.3332 1.6665 14.6023 1.6665 9.99984C1.6665 5.39734 5.39734 1.6665 9.99984 1.6665C14.6023 1.6665 18.3332 5.39734 18.3332 9.99984C18.3332 14.6023 14.6023 18.3332 9.99984 18.3332ZM9.99984 16.6665C11.7679 16.6665 13.4636 15.9641 14.7139 14.7139C15.9641 13.4636 16.6665 11.7679 16.6665 9.99984C16.6665 8.23173 15.9641 6.53604 14.7139 5.28579C13.4636 4.03555 11.7679 3.33317 9.99984 3.33317C8.23173 3.33317 6.53604 4.03555 5.28579 5.28579C4.03555 6.53604 3.33317 8.23173 3.33317 9.99984C3.33317 11.7679 4.03555 13.4636 5.28579 14.7139C6.53604 15.9641 8.23173 16.6665 9.99984 16.6665Z" fill="#A6A5AF"/>
<path d="M8.79837 6.32731C8.67628 6.51003 8.61111 6.72485 8.61111 6.94461H8.55556C8.55537 7.09532 8.58584 7.24449 8.64512 7.38305C8.7044 7.52161 8.79125 7.64666 8.90038 7.7506C9.00952 7.85453 9.13865 7.93518 9.27994 7.98764C9.42122 8.04009 9.5717 8.06325 9.72222 8.05572C9.94198 8.05572 10.1568 7.99055 10.3395 7.86846C10.5222 7.74637 10.6647 7.57284 10.7488 7.36981C10.8329 7.16678 10.8549 6.94337 10.812 6.72784C10.7691 6.51231 10.6633 6.31433 10.5079 6.15893C10.3525 6.00354 10.1545 5.89772 9.93899 5.85485C9.72345 5.81197 9.50005 5.83398 9.29702 5.91807C9.09399 6.00217 8.92046 6.14459 8.79837 6.32731Z" fill="#7B798A"/>
<path d="M12.3373 14.4763C12.4415 14.3721 12.5 14.2308 12.5 14.0835C12.5 13.9362 12.4415 13.7948 12.3373 13.6907C12.2331 13.5865 12.0918 13.5279 11.9444 13.5279H10.8333V9.0835H8.61111C8.46377 9.0835 8.32246 9.14203 8.21827 9.24622C8.11409 9.3504 8.05556 9.49171 8.05556 9.63905C8.05556 9.78639 8.11409 9.9277 8.21827 10.0319C8.32246 10.1361 8.46377 10.1946 8.61111 10.1946H9.16667V13.5279H8.05556C7.90821 13.5279 7.76691 13.5865 7.66272 13.6907C7.55853 13.7948 7.5 13.9362 7.5 14.0835C7.5 14.2308 7.55853 14.3721 7.66272 14.4763C7.76691 14.5805 7.90821 14.6391 8.05556 14.6391H11.9444C12.0918 14.6391 12.2331 14.5805 12.3373 14.4763Z" fill="#7B798A"/>
</g>
</svg>
