<svg width="16" height="16" viewBox="0 0 16 16" fill="none" xmlns="http://www.w3.org/2000/svg">
<path d="M8 0C6.41775 0 4.87104 0.469192 3.55544 1.34824C2.23985 2.22729 1.21447 3.47672 0.608967 4.93853C0.00346629 6.40034 -0.15496 8.00887 0.153721 9.56072C0.462403 11.1126 1.22433 12.538 2.34315 13.6569C3.46197 14.7757 4.88743 15.5376 6.43928 15.8463C7.99113 16.155 9.59966 15.9965 11.0615 15.391C12.5233 14.7855 13.7727 13.7602 14.6518 12.4446C15.5308 11.129 16 9.58225 16 8C16 5.87827 15.1571 3.84344 13.6569 2.34315C12.1566 0.842855 10.1217 0 8 0ZM6.66667 3.43333C6.66667 3.16962 6.74487 2.91184 6.89138 2.69257C7.03789 2.47331 7.24612 2.30241 7.48976 2.20149C7.73339 2.10058 8.00148 2.07417 8.26012 2.12562C8.51877 2.17707 8.75634 2.30405 8.94281 2.49052C9.12928 2.67699 9.25627 2.91457 9.30772 3.17321C9.35917 3.43185 9.33276 3.69994 9.23184 3.94358C9.13093 4.18721 8.96003 4.39545 8.74076 4.54196C8.5215 4.68847 8.26371 4.76667 8 4.76667C7.81938 4.77571 7.6388 4.74791 7.46926 4.68497C7.29972 4.62202 7.14476 4.52524 7.0138 4.40052C6.88284 4.27579 6.77862 4.12573 6.70748 3.95946C6.63635 3.79319 6.59978 3.61418 6.6 3.43333H6.66667ZM11.3333 12C11.3333 12.1768 11.2631 12.3464 11.1381 12.4714C11.0131 12.5964 10.8435 12.6667 10.6667 12.6667H6C5.82319 12.6667 5.65362 12.5964 5.5286 12.4714C5.40358 12.3464 5.33334 12.1768 5.33334 12C5.33334 11.8232 5.40358 11.6536 5.5286 11.5286C5.65362 11.4036 5.82319 11.3333 6 11.3333H7.33334V7.33333H6.66667C6.48986 7.33333 6.32029 7.2631 6.19527 7.13807C6.07024 7.01305 6 6.84348 6 6.66667C6 6.48986 6.07024 6.32029 6.19527 6.19526C6.32029 6.07024 6.48986 6 6.66667 6H9.33334V11.3333H10.6667C10.8435 11.3333 11.0131 11.4036 11.1381 11.5286C11.2631 11.6536 11.3333 11.8232 11.3333 12Z" fill="#565656"/>
</svg>
