<svg width="14" height="11" viewBox="0 0 14 11" fill="none" xmlns="http://www.w3.org/2000/svg">
<path d="M7.5478 0.954324C7.48664 0.865496 7.4048 0.792868 7.30934 0.742693C7.21387 0.692519 7.10764 0.666303 6.9998 0.666303C6.89195 0.666303 6.78572 0.692519 6.69026 0.742693C6.59479 0.792868 6.51296 0.865496 6.4518 0.954324L0.451798 9.62099C0.382347 9.72095 0.341621 9.83804 0.334042 9.95952C0.326462 10.081 0.35232 10.2022 0.408807 10.3101C0.465294 10.4179 0.550248 10.5082 0.65444 10.5711C0.758633 10.634 0.878078 10.6672 0.999798 10.667L12.9998 10.667C13.1212 10.6665 13.2402 10.6329 13.344 10.5698C13.4478 10.5067 13.5324 10.4166 13.5888 10.309C13.6451 10.2014 13.6711 10.0805 13.6639 9.9593C13.6566 9.83808 13.6165 9.72112 13.5478 9.62099L7.5478 0.954324Z" fill="#FFCCD0"/>
</svg>
