<svg width="238" height="238" viewBox="0 0 238 238" fill="none" xmlns="http://www.w3.org/2000/svg">
<path d="M156 13.1485C131.315 4.63417 104.429 4.97203 79.9668 14.104C55.5046 23.2359 34.9959 40.5909 21.9689 63.1834C8.94185 85.7758 4.21106 112.193 8.59035 137.89C11.0316 152.215 16.2187 165.817 23.7578 178" stroke="#2196F3" stroke-width="14" stroke-linecap="round"/>
<path d="M40 198C55.6944 213.757 75.6904 224.488 97.4592 228.835C110.559 231.451 123.946 231.685 137 229.598" stroke="#565656" stroke-width="14" stroke-linecap="round"/>
<path d="M180 25C191.249 32.2801 201.17 41.5517 209.231 52.4385C219.078 65.7393 225.792 80.9682 229 97" stroke="#FFC300" stroke-width="14" stroke-linecap="round"/>
<path d="M137.5 229.5C164.5 225.5 192.909 210.444 212.206 181.676C225.61 161.694 230.32 143.91 231 123" stroke="#565656" stroke-width="14" stroke-linecap="round"/>
<path d="M75 115.88C75 118.12 74.1067 120.053 72.32 121.68C70.5333 123.28 68.1867 124.213 65.28 124.48V129.8H60.72V124.28C58.2667 123.773 56.1867 122.773 54.48 121.28C52.7733 119.76 51.5867 118.027 50.92 116.08L56.12 114.48C56.7333 116.027 57.7333 117.293 59.12 118.28C60.5067 119.24 62.1733 119.72 64.12 119.72C65.6933 119.72 66.9733 119.373 67.96 118.68C68.9733 117.987 69.48 117.16 69.48 116.2C69.48 115.453 69.1867 114.813 68.6 114.28C68.04 113.747 67.0933 113.267 65.76 112.84L58.64 110.6C56.6933 109.987 55.1467 109.08 54 107.88C52.8533 106.68 52.28 105.213 52.28 103.48C52.28 101.48 53.0667 99.7333 54.64 98.24C56.2133 96.72 58.24 95.8133 60.72 95.52V90.2H65.28V95.72C67.4667 96.1467 69.36 97 70.96 98.28C72.5867 99.5333 73.72 100.987 74.36 102.64L69.28 104.12C68.6933 102.973 67.7733 102.053 66.52 101.36C65.2933 100.64 63.9067 100.28 62.36 100.28C61.0267 100.28 59.9333 100.573 59.08 101.16C58.2533 101.747 57.84 102.467 57.84 103.32C57.84 104.547 58.7467 105.427 60.56 105.96L67.52 108.2C69.9467 108.947 71.8 109.893 73.08 111.04C74.36 112.16 75 113.773 75 115.88ZM101.407 106.64C103.621 106.987 105.394 107.907 106.727 109.4C108.087 110.867 108.767 112.76 108.767 115.08C108.767 117.747 107.794 120 105.847 121.84C103.927 123.653 101.514 124.56 98.6072 124.56C95.4339 124.56 92.9139 123.733 91.0472 122.08C89.1805 120.427 88.0339 118.427 87.6072 116.08L92.5272 114.68C92.7672 116.093 93.4205 117.293 94.4872 118.28C95.5539 119.267 96.8339 119.76 98.3272 119.76C99.9005 119.76 101.141 119.307 102.047 118.4C102.981 117.467 103.447 116.36 103.447 115.08C103.447 113.773 103.021 112.693 102.167 111.84C101.314 110.96 100.141 110.52 98.6472 110.52C97.5272 110.52 96.5672 110.747 95.7672 111.2L94.8472 107.96L100.527 100.92H88.4872V96H107.727V99.68L101.407 106.64ZM123.115 105.76C125.809 105.76 128.035 106.64 129.795 108.4C131.555 110.16 132.435 112.36 132.435 115C132.435 117.693 131.475 119.96 129.555 121.8C127.635 123.64 125.222 124.56 122.315 124.56C119.382 124.56 117.009 123.827 115.195 122.36C113.382 120.867 112.169 119.027 111.555 116.84L116.475 115.48C116.902 116.733 117.595 117.76 118.555 118.56C119.542 119.36 120.689 119.76 121.995 119.76C123.569 119.76 124.822 119.307 125.755 118.4C126.689 117.467 127.155 116.307 127.155 114.92C127.155 113.533 126.689 112.387 125.755 111.48C124.849 110.573 123.582 110.12 121.955 110.12C120.062 110.12 118.409 110.653 116.995 111.72L112.675 110.4L113.875 96H131.115V100.92H118.755L118.315 106.72C119.729 106.08 121.329 105.76 123.115 105.76ZM148.985 106.64C151.199 106.987 152.972 107.907 154.305 109.4C155.665 110.867 156.345 112.76 156.345 115.08C156.345 117.747 155.372 120 153.425 121.84C151.505 123.653 149.092 124.56 146.185 124.56C143.012 124.56 140.492 123.733 138.625 122.08C136.759 120.427 135.612 118.427 135.185 116.08L140.105 114.68C140.345 116.093 140.999 117.293 142.065 118.28C143.132 119.267 144.412 119.76 145.905 119.76C147.479 119.76 148.719 119.307 149.625 118.4C150.559 117.467 151.025 116.36 151.025 115.08C151.025 113.773 150.599 112.693 149.745 111.84C148.892 110.96 147.719 110.52 146.225 110.52C145.105 110.52 144.145 110.747 143.345 111.2L142.425 107.96L148.105 100.92H136.065V96H155.305V99.68L148.985 106.64ZM179.009 124L170.169 112.28L166.049 116.84V124H160.569V96H166.049V109.56L177.849 96H184.809L173.769 108.24L185.689 124H179.009Z" fill="#2196F3"/>
<path d="M93.504 152.208C92.288 152.208 91.2373 151.883 90.352 151.232C89.4667 150.581 88.8693 149.787 88.56 148.848L89.776 148.48C90.032 149.227 90.496 149.845 91.168 150.336C91.8507 150.816 92.6507 151.056 93.568 151.056C94.432 151.056 95.136 150.848 95.68 150.432C96.224 150.005 96.496 149.515 96.496 148.96C96.496 148.523 96.3413 148.16 96.032 147.872C95.7227 147.573 95.1947 147.307 94.448 147.072L91.648 146.176C89.9947 145.643 89.168 144.768 89.168 143.552C89.168 142.741 89.5253 142.048 90.24 141.472C90.9547 140.885 91.8453 140.592 92.912 140.592C94.0213 140.592 94.9707 140.848 95.76 141.36C96.56 141.872 97.1307 142.523 97.472 143.312L96.288 143.68C96.0107 143.083 95.5787 142.613 94.992 142.272C94.4053 141.92 93.7067 141.744 92.896 141.744C92.1813 141.744 91.5947 141.92 91.136 142.272C90.6773 142.624 90.448 143.04 90.448 143.52C90.448 143.893 90.5813 144.203 90.848 144.448C91.1147 144.693 91.5627 144.917 92.192 145.12L94.912 145.984C95.872 146.293 96.5867 146.661 97.056 147.088C97.5253 147.515 97.76 148.117 97.76 148.896C97.76 149.813 97.36 150.597 96.56 151.248C95.76 151.888 94.7413 152.208 93.504 152.208ZM103.298 152.208C102.146 152.208 101.186 151.808 100.418 151.008C99.6501 150.208 99.2661 149.205 99.2661 148C99.2661 146.805 99.6501 145.813 100.418 145.024C101.186 144.224 102.146 143.824 103.298 143.824C104.695 143.824 105.746 144.368 106.45 145.456V144.016H107.682V152H106.45V150.544C105.757 151.653 104.706 152.208 103.298 152.208ZM103.474 151.088C104.306 151.088 105.015 150.795 105.602 150.208C106.189 149.621 106.482 148.891 106.482 148.016C106.482 147.141 106.189 146.411 105.602 145.824C105.015 145.237 104.306 144.944 103.474 144.944C102.599 144.944 101.879 145.232 101.314 145.808C100.759 146.384 100.482 147.12 100.482 148.016C100.482 148.901 100.759 149.637 101.314 150.224C101.879 150.8 102.599 151.088 103.474 151.088ZM115.98 144.016H117.308L113.836 152H112.476L109.004 144.016H110.332L113.164 150.656L115.98 144.016ZM119.964 142.288C119.804 142.448 119.602 142.528 119.356 142.528C119.111 142.528 118.908 142.448 118.748 142.288C118.588 142.128 118.508 141.925 118.508 141.68C118.508 141.456 118.588 141.264 118.748 141.104C118.919 140.944 119.122 140.864 119.356 140.864C119.591 140.864 119.788 140.944 119.948 141.104C120.119 141.264 120.204 141.456 120.204 141.68C120.204 141.925 120.124 142.128 119.964 142.288ZM118.748 152V144.016H119.98V152H118.748ZM126.642 143.824C127.634 143.824 128.413 144.133 128.978 144.752C129.554 145.371 129.842 146.224 129.842 147.312V152H128.61V147.488C128.61 146.699 128.413 146.085 128.018 145.648C127.634 145.2 127.085 144.976 126.37 144.976C125.57 144.976 124.919 145.253 124.418 145.808C123.927 146.363 123.682 147.088 123.682 147.984V152H122.45V144.016H123.682V145.424C123.981 144.944 124.381 144.56 124.882 144.272C125.394 143.973 125.981 143.824 126.642 143.824ZM138.825 144.016H140.041V151.728C140.041 152.837 139.673 153.755 138.937 154.48C138.201 155.205 137.251 155.568 136.089 155.568C134.339 155.568 133.075 154.869 132.297 153.472L133.385 153.072C133.95 154.021 134.857 154.496 136.105 154.496C136.937 154.496 137.593 154.235 138.073 153.712C138.553 153.189 138.803 152.528 138.825 151.728V150.368C138.131 151.392 137.086 151.904 135.689 151.904C134.526 151.904 133.561 151.52 132.793 150.752C132.035 149.973 131.657 149.008 131.657 147.856C131.657 146.693 132.035 145.733 132.793 144.976C133.561 144.208 134.526 143.824 135.689 143.824C137.097 143.824 138.142 144.331 138.825 145.344V144.016ZM135.865 150.784C136.697 150.784 137.401 150.507 137.977 149.952C138.553 149.387 138.841 148.693 138.841 147.872C138.841 147.04 138.553 146.347 137.977 145.792C137.401 145.227 136.697 144.944 135.865 144.944C134.99 144.944 134.27 145.221 133.705 145.776C133.15 146.32 132.873 147.019 132.873 147.872C132.873 148.715 133.15 149.413 133.705 149.968C134.27 150.512 134.99 150.784 135.865 150.784ZM145.362 152.208C144.477 152.208 143.693 151.979 143.01 151.52C142.338 151.051 141.901 150.475 141.698 149.792L142.85 149.472C143 149.952 143.304 150.352 143.762 150.672C144.232 150.981 144.776 151.136 145.394 151.136C145.981 151.136 146.461 151.008 146.834 150.752C147.208 150.496 147.394 150.187 147.394 149.824C147.394 149.515 147.304 149.28 147.122 149.12C146.941 148.949 146.642 148.8 146.226 148.672L143.954 148C142.717 147.637 142.098 146.992 142.098 146.064C142.098 145.456 142.381 144.933 142.946 144.496C143.512 144.048 144.205 143.824 145.026 143.824C145.848 143.824 146.552 144.011 147.138 144.384C147.736 144.757 148.157 145.232 148.402 145.808L147.282 146.144C147.133 145.781 146.856 145.477 146.45 145.232C146.045 144.987 145.565 144.864 145.01 144.864C144.509 144.864 144.098 144.987 143.778 145.232C143.469 145.477 143.314 145.749 143.314 146.048C143.314 146.475 143.672 146.795 144.386 147.008L146.658 147.68C147.266 147.861 147.741 148.112 148.082 148.432C148.434 148.741 148.61 149.184 148.61 149.76C148.61 150.464 148.301 151.051 147.682 151.52C147.074 151.979 146.301 152.208 145.362 152.208Z" fill="#565656"/>
</svg>
